<?xml version="1.0" encoding="UTF-8" standalone="no"?>
<!-- Created with Inkscape (http://www.inkscape.org/) -->
<svg
   xmlns:dc="http://purl.org/dc/elements/1.1/"
   xmlns:cc="http://web.resource.org/cc/"
   xmlns:rdf="http://www.w3.org/1999/02/22-rdf-syntax-ns#"
   xmlns:svg="http://www.w3.org/2000/svg"
   xmlns="http://www.w3.org/2000/svg"
   xmlns:sodipodi="http://sodipodi.sourceforge.net/DTD/sodipodi-0.dtd"
   xmlns:inkscape="http://www.inkscape.org/namespaces/inkscape"
   width="297mm"
   height="210mm"
   id="svg2372"
   sodipodi:version="0.32"
   inkscape:version="0.45.1"
   sodipodi:docbase="/home/kirill/workspace/XMachineTool/resources/graphLayout"
   sodipodi:docname="flowgraphtests.svg"
   inkscape:output_extension="org.inkscape.output.svg.inkscape">
  <defs
     id="defs2374" />
  <sodipodi:namedview
     inkscape:document-units="mm"
     pagecolor="#ffffff"
     bordercolor="#666666"
     borderopacity="1.0"
     inkscape:pageopacity="0.0"
     inkscape:pageshadow="2"
     inkscape:zoom="1.2279853"
     inkscape:cx="490"
     inkscape:cy="380"
     inkscape:current-layer="layer1"
     id="namedview2376"
     inkscape:window-width="1575"
     inkscape:window-height="1175"
     inkscape:window-x="0"
     inkscape:window-y="0" />
  <metadata
     id="metadata2378">
    <rdf:RDF>
      <cc:Work
         rdf:about="">
        <dc:format>image/svg+xml</dc:format>
        <dc:type
           rdf:resource="http://purl.org/dc/dcmitype/StillImage" />
      </cc:Work>
    </rdf:RDF>
  </metadata>
  <g
     inkscape:label="Layer 1"
     inkscape:groupmode="layer"
     id="layer1">
    <path
       style="fill:none;fill-rule:evenodd;stroke:#000000;stroke-width:1px;stroke-linecap:butt;stroke-linejoin:miter;stroke-opacity:1"
       d="M 511.90907,164.14405 C 513.10579,168.71615 515.79197,155.11453 519.47539,152.15334 C 526.66932,146.36999 536.90743,146.54011 544.8461,150.20832 C 552.3315,153.66709 552.01801,162.95691 552.69029,169.8936 C 553.32953,176.48944 549.64837,183.34019 545.3377,187.89034 C 540.37996,193.12352 533.23935,190.14994 528.53789,186.50105 C 525.46783,184.11831 523.70801,179.24646 522.18987,175.81414 C 520.48589,171.96168 518.44916,168.31767 516.93191,164.44328 C 516.10434,162.33001 517.21638,164.46516 516.65405,164.42191"
       id="path4473" />
    <path
       style="fill:none;fill-rule:evenodd;stroke:#000000;stroke-width:1px;stroke-linecap:butt;stroke-linejoin:miter;stroke-opacity:1"
       d="M 549.48422,158.09526 C 548.36845,155.24607 565.25398,147.47948 567.2031,146.46791 C 578.01556,140.85638 591.24169,138.22705 603.1111,135.97337 C 615.37182,133.64539 627.55162,132.5421 639.98091,134.19934 C 647.93492,135.25988 644.50922,134.83218 646.5213,138.02526"
       id="path4475" />
    <path
       style="fill:none;fill-rule:evenodd;stroke:#000000;stroke-width:1px;stroke-linecap:butt;stroke-linejoin:miter;stroke-opacity:1"
       d="M 634.25273,128.59941 C 635.39699,128.75197 634.20999,126.29104 634.18861,125.13685 C 634.15421,123.27927 637.29739,128.0519 639.12596,127.72308 C 645.99032,126.4887 644.06746,139.03085 643.35797,141.63743 C 642.47922,144.86591 634.71704,145.799 633.71839,146.06181"
       id="path4477" />
    <path
       style="fill:none;fill-rule:evenodd;stroke:#000000;stroke-width:1px;stroke-linecap:butt;stroke-linejoin:miter;stroke-opacity:1"
       d="M 553.78035,171.689 C 552.25594,177.28957 565.11608,169.08613 570.8794,168.39743 C 587.09699,166.45948 603.0389,165.51967 619.33382,165.16999 C 625.2849,165.04228 631.30734,164.36439 637.15957,164.84938 C 639.06938,165.00765 637.92541,166.30448 638.01452,166.47379"
       id="path4479" />
    <path
       style="fill:none;fill-rule:evenodd;stroke:#000000;stroke-width:1px;stroke-linecap:butt;stroke-linejoin:miter;stroke-opacity:1"
       d="M 631.21765,157.64641 C 643.37837,158.6542 640.05275,167.83278 632.05123,174.10424 C 629.97688,175.73008 630.06276,176.55362 628.82379,178.07977"
       id="path4481" />
    <path
       style="fill:none;fill-rule:evenodd;stroke:#000000;stroke-width:1px;stroke-linecap:butt;stroke-linejoin:miter;stroke-opacity:1"
       d="M 689.20478,135.41765 C 685.93856,137.97766 682.55225,129.67508 678.43239,129.1765 C 667.58302,127.86352 660.04672,131.52846 652.31359,138.70922 C 641.73155,148.5354 636.45943,158.099 648.53043,169.06002 C 656.21655,176.03937 669.17937,177.71101 678.9881,176.49811 C 690.36223,175.09163 694.84003,167.61546 697.21996,157.36855 C 698.73963,150.82553 696.79946,146.16575 692.64597,141.35957 C 689.21931,137.39444 682.05474,138.33882 677.81254,139.17944"
       id="path4483" />
    <path
       style="fill:none;fill-rule:evenodd;stroke:#000000;stroke-width:1px;stroke-linecap:butt;stroke-linejoin:miter;stroke-opacity:1"
       d="M 697.83981,143.47558 C 701.63697,140.3311 708.94083,140.33756 714.85336,140.16264 C 726.55619,139.8164 738.14827,142.9304 749.24381,146.25417 C 761.37982,149.88963 773.01677,155.96975 783.42053,163.09673 C 787.62124,165.97439 787.67214,165.6987 789.29832,168.56842"
       id="path4485" />
    <path
       style="fill:none;fill-rule:evenodd;stroke:#000000;stroke-width:1px;stroke-linecap:butt;stroke-linejoin:miter;stroke-opacity:1"
       d="M 778.67554,153.92737 C 783.66963,157.34851 784.9683,166.01806 785.62203,172.80044 C 786.00646,176.78889 780.4537,174.10186 777.5641,173.63402 C 774.97855,173.2154 776.11365,173.85434 774.18704,174.14699"
       id="path4487" />
    <path
       style="fill:none;fill-rule:evenodd;stroke:#000000;stroke-width:1px;stroke-linecap:butt;stroke-linejoin:miter;stroke-opacity:1"
       d="M 683.92546,164.80663 C 677.62101,163.78591 696.75478,165.62313 702.92677,167.26462 C 720.49283,171.93645 735.83943,181.35514 751.65905,189.87811 C 758.98013,193.82241 766.89317,196.13354 774.63589,199.04747 C 775.2129,199.26462 773.95193,200.07341 773.60995,200.58639"
       id="path4489" />
    <path
       style="fill:none;fill-rule:evenodd;stroke:#000000;stroke-width:1px;stroke-linecap:butt;stroke-linejoin:miter;stroke-opacity:1"
       d="M 771.02372,187.33463 C 780.11996,190.75794 783.05455,195.69198 770.85273,203.94207 C 766.84273,206.65338 760.82882,204.20754 757.02387,202.63827"
       id="path4491" />
    <path
       style="fill:none;fill-rule:evenodd;stroke:#000000;stroke-width:1px;stroke-linecap:butt;stroke-linejoin:miter;stroke-opacity:1"
       d="M 731.99515,171.36839 C 729.96452,176.78998 740.62396,163.1881 742.93854,157.88152 C 744.41017,154.50754 740.98907,154.73815 739.24087,154.39759 C 726.02222,151.82253 732.04998,171.70871 732.61499,175.21568 C 733.36018,179.841 742.3608,176.19246 744.0286,175.1943 C 754.02808,169.20977 732.15178,171.46197 728.70358,169.402"
       id="path4495" />
    <path
       style="fill:none;fill-rule:evenodd;stroke:#000000;stroke-width:1px;stroke-linecap:butt;stroke-linejoin:miter;stroke-opacity:1"
       d="M 597.12643,124.08953 C 600.28545,122.19891 597.17855,116.68098 595.26691,113.9156 C 591.85255,108.97638 585.9946,115.98102 584.55863,118.36135 C 578.0503,129.14995 597.02678,121.69778 597.38292,130.24519 C 597.44218,131.66754 597.12643,133.08078 596.99819,134.49858"
       id="path4497" />
    <path
       style="fill:none;fill-rule:evenodd;stroke:#000000;stroke-width:1px;stroke-linecap:butt;stroke-linejoin:miter;stroke-opacity:1"
       d="M 612.36596,151.91823 C 612.50266,155.19908 610.88848,143.88116 607.66372,143.26184 C 592.86653,140.41999 597.89248,154.2864 613.19953,159.57005 C 613.99288,159.8439 614.53896,160.58175 615.20867,161.08759"
       id="path4499" />
    <path
       style="fill:none;fill-rule:evenodd;stroke:#000000;stroke-width:1px;stroke-linecap:butt;stroke-linejoin:miter;stroke-opacity:1"
       d="M 813.19424,175.36529 C 813.88121,175.60242 809.89672,167.77795 800.22034,166.45242 C 791.456,165.25182 785.75621,175.06834 781.32589,180.83699 C 773.94238,190.45094 777.82862,204.26945 784.68158,212.55572 C 791.5298,220.83625 810.93322,223.65793 820.73919,221.08387 C 828.8859,218.94535 830.29437,205.41611 831.49021,198.85511 C 832.81303,191.59751 828.77778,184.74726 825.16357,178.76373 C 822.06851,173.63969 808.62224,169.36323 803.25542,172.5012"
       id="path4501" />
    <path
       style="fill:none;fill-rule:evenodd;stroke:#000000;stroke-width:1px;stroke-linecap:butt;stroke-linejoin:miter;stroke-opacity:1"
       d="M 817.66136,175.42942 C 814.98927,171.00562 824.00009,167.12774 826.01852,162.37002 C 833.06358,145.7638 829.44499,127.84356 825.71929,111.03014 C 821.6065,92.469848 807.60462,74.170338 791.1151,64.798598 C 776.79191,56.658078 761.49979,58.280198 746.50796,62.789458 C 735.28182,66.166068 723.18744,78.237928 714.53275,85.958658 C 708.11686,91.682188 702.60627,98.493898 696.34364,104.40426 C 691.81034,108.68256 687.78348,112.02676 684.43843,117.35679 C 683.02952,119.60175 681.96887,122.28826 680.93313,124.60251 C 680.45346,125.67426 688.17983,119.75083 689.78188,118.70333 C 692.20149,117.12129 694.57694,115.47264 696.98485,113.87285 C 698.55974,112.82652 688.65251,121.09414 679.41559,122.18727 C 677.74104,122.38544 678.76599,121.83423 678.43239,121.65292 C 673.81994,119.14615 682.57212,111.63571 682.32242,106.39202"
       id="path4503" />
    <path
       style="fill:none;fill-rule:evenodd;stroke:#000000;stroke-width:1px;stroke-linecap:butt;stroke-linejoin:miter;stroke-opacity:1"
       d="M 775.17024,76.319078 C 772.53283,74.885698 773.22799,70.362838 771.02372,68.325268 C 765.47279,63.194168 757.6449,77.663578 762.17496,83.735788 C 764.04867,86.247348 768.78798,87.684158 771.60081,89.057868"
       id="path4505" />
    <path
       style="fill:none;fill-rule:evenodd;stroke:#000000;stroke-width:1px;stroke-linecap:butt;stroke-linejoin:miter;stroke-opacity:1"
       d="M 657.59293,131.29251 C 658.3092,132.25261 656.48463,119.70424 647.61136,108.74314 C 637.25352,95.948158 622.88574,87.321558 607.62097,81.705278 C 595.60695,77.285018 578.80112,81.745658 567.97256,87.369338 C 558.66131,92.205008 551.5265,101.72008 543.45681,108.27292 C 537.41727,113.1772 530.92137,120.10096 529.7562,127.82995 C 528.81687,134.06079 526.99975,140.01111 525.88754,146.19005 C 525.76026,146.89714 526.07278,147.61497 526.1654,148.32743"
       id="path4507" />
    <path
       style="fill:none;fill-rule:evenodd;stroke:#000000;stroke-width:1px;stroke-linecap:butt;stroke-linejoin:miter;stroke-opacity:1"
       d="M 518.72731,136.3581 C 518.58739,137.13545 526.29938,147.66804 528.15316,149.80222 C 528.87446,150.63262 545.93909,134.47428 547.26134,133.15203"
       id="path4509" />
    <path
       style="fill:none;fill-rule:evenodd;stroke:#000000;stroke-width:1px;stroke-linecap:butt;stroke-linejoin:miter;stroke-opacity:1"
       d="M 594.26234,62.639838 C 596.84841,65.617078 589.01849,56.073588 585.22122,55.009388 C 578.19313,53.039738 571.60558,62.036778 575.45339,67.213838 C 578.38752,71.161568 585.5595,68.349268 590.20132,66.722238 C 592.27059,65.996928 592.18876,70.633538 593.27915,72.535908"
       id="path4511" />
    <path
       style="fill:none;fill-rule:evenodd;stroke:#000000;stroke-width:1px;stroke-linecap:butt;stroke-linejoin:miter;stroke-opacity:1"
       d="M 667.51038,130.24519 C 671.13461,128.97484 666.94612,115.62054 666.12108,113.424 C 660.96282,99.690968 649.1799,82.207338 640.25877,70.377158 C 631.32466,58.529758 618.93634,51.443688 605.29123,46.438498 C 591.85709,41.510688 576.02427,43.401348 562.07339,44.130128 C 549.52907,44.785428 539.16117,52.326688 531.08137,61.293288 C 522.85265,70.425158 518.06568,84.796578 513.93958,96.218088 C 510.53766,105.63501 508.86156,115.73935 506.43737,125.43608 C 504.54317,133.01288 506.81016,142.32726 508.01903,149.84497 C 508.47764,152.69691 511.47067,155.45542 513.23424,157.56091 C 513.53895,157.92469 513.28861,157.11693 513.36249,156.5136 C 513.85261,152.5109 514.37597,148.15952 515.28613,144.48014 C 516.40254,139.96699 514.82812,153.92276 513.17012,158.26625 C 510.90558,164.19871 500.69575,157.62802 498.01609,155.87238 C 496.89433,155.13744 497.4209,154.8213 497.01152,154.09836"
       id="path4513" />
    <path
       style="fill:none;fill-rule:evenodd;stroke:#000000;stroke-width:1px;stroke-linecap:butt;stroke-linejoin:miter;stroke-opacity:1"
       d="M 575.43202,31.156228 C 573.42396,29.868608 582.59045,19.51116 583.59681,18.438809 C 587.22401,14.573765 587.10804,11.089614 584.96474,6.7473365 C 583.14596,3.0625505 578.42775,8.0829885 577.03505,9.3976885 C 574.1943,12.079359 573.45079,17.799723 571.84122,21.302898 C 568.78463,27.955478 576.59711,34.221018 582.61362,33.143988 C 587.21748,32.319838 584.07153,27.479938 582.74186,25.663158 C 579.81949,21.670218 572.82296,26.947458 570.7939,28.634118"
       id="path4517" />
    <path
       style="fill:none;fill-rule:evenodd;stroke:#000000;stroke-width:1px;stroke-linecap:butt;stroke-linejoin:miter;stroke-opacity:1"
       d="M 589.32499,58.087218 C 589.2384,57.968898 588.26403,64.954598 588.17081,66.166518 C 588.06118,67.591658 587.77326,68.969088 587.65784,70.398528 C 587.62379,70.820178 589.56921,71.362828 590.03033,71.595468 C 590.10738,71.634338 589.6956,72.092778 589.28225,72.706898"
       id="path4519" />
    <path
       style="fill:none;fill-rule:evenodd;stroke:#000000;stroke-width:1px;stroke-linecap:butt;stroke-linejoin:miter;stroke-opacity:1"
       d="M 751.23157,108.35841 C 749.11264,111.6863 747.4942,116.44397 746.01636,120.62698 C 744.48644,124.95743 743.13986,129.25484 742.25457,133.72912 C 742.05146,134.75569 741.58243,137.53795 741.54924,137.72602 C 741.43956,138.34753 738.71627,137.8028 737.80882,137.76877 C 733.84005,137.61994 731.82117,136.24732 729.38754,133.79324 C 727.38355,131.7724 729.8783,128.15693 730.69135,126.31241 C 731.69485,124.03579 734.80491,123.99263 736.80425,123.74755 C 738.90281,123.49031 739.97318,124.55543 741.57061,125.30784 C 742.30929,125.65577 742.09103,125.55908 742.81029,125.90631 C 742.87477,125.93744 742.95279,125.89206 743.02403,125.88493 C 743.09805,125.87753 742.98128,126.02743 742.95991,126.09867"
       id="path4521" />
    <path
       style="fill:none;fill-rule:evenodd;stroke:#000000;stroke-width:1px;stroke-linecap:butt;stroke-linejoin:miter;stroke-opacity:1"
       d="M 832.83676,194.55897 C 841.38005,193.70464 850.26182,195.22077 858.65632,197.46581 C 868.63454,200.1344 878.47925,203.24045 888.45141,205.88709 C 890.66566,206.47476 892.89389,207.4416 894.58569,208.98629"
       id="path4523" />
    <path
       style="fill:none;fill-rule:evenodd;stroke:#000000;stroke-width:1px;stroke-linecap:butt;stroke-linejoin:miter;stroke-opacity:1"
       d="M 888.25904,194.23837 C 890.13479,194.73619 892.17666,205.08313 892.5338,207.426 C 892.89927,209.82347 891.58878,209.11898 889.19949,209.41377 C 883.76392,210.08439 878.4478,211.01735 873.16914,212.44885"
       id="path4525" />
    <path
       style="fill:none;fill-rule:evenodd;stroke:#000000;stroke-width:1px;stroke-linecap:butt;stroke-linejoin:miter;stroke-opacity:1"
       d="M 866.35089,164.69977 C 863.4427,165.05857 861.86184,179.38444 861.58453,182.67514 C 861.02051,189.36819 861.21366,182.83458 859.29754,183.65833 C 856.10911,185.02906 853.23526,177.28353 847.37095,181.30721 C 841.83314,185.10688 859.86853,187.02523 861.58453,186.99264 C 862.34603,186.97819 861.3091,186.94858 862.65322,187.16364"
       id="path4527" />
    <path
       style="fill:none;fill-rule:evenodd;stroke:#000000;stroke-width:1px;stroke-linecap:butt;stroke-linejoin:miter;stroke-opacity:1"
       d="M 917.22055,201.91156 C 921.26174,201.83483 909.04727,200.62864 905.1016,201.50546 C 898.0458,203.07342 896.20583,209.55672 896.06048,215.69767 C 895.87398,223.57731 901.48294,228.74514 907.8802,232.00588 C 914.07322,235.16252 920.4432,234.00452 925.68458,230.18911 C 930.12445,226.95714 930.61736,220.77242 931.75474,215.89003 C 932.89283,211.00456 929.57831,205.62987 926.38991,202.36041 C 924.93733,200.8709 911.20448,196.33569 906.31991,196.07651"
       id="path4529" />
    <path
       style="fill:none;fill-rule:evenodd;stroke:#000000;stroke-width:1px;stroke-linecap:butt;stroke-linejoin:miter;stroke-opacity:1"
       d="M 934.04174,215.24882 C 930.99178,212.12132 941.83305,206.73145 943.59583,206.03671 C 952.49899,202.52781 963.90694,207.44488 965.88871,216.46712 C 967.89821,225.61566 961.69146,236.5747 956.52698,243.56911 C 951.37426,250.54759 945.76239,250.58944 938.14551,248.33547 C 932.83653,246.76444 928.86639,244.08314 926.30442,239.35847 C 925.59105,238.04291 926.66165,235.66872 926.79602,234.69898 C 926.84878,234.31813 926.83107,233.59473 926.83876,233.35243 C 926.94048,230.14835 930.86065,238.37096 933.18678,240.57678 C 935.44575,242.7189 927.69983,237.59271 924.78688,236.49438 C 919.46577,234.48806 924.85978,236.44335 921.79455,238.58901 C 920.23484,239.68081 918.75753,243.88898 918.13962,245.08665"
       id="path4531" />
    <path
       style="fill:none;fill-rule:evenodd;stroke:#000000;stroke-width:1px;stroke-linecap:butt;stroke-linejoin:miter;stroke-opacity:1"
       d="M 979.9313,246.45457 C 977.96184,247.8332 979.49888,241.19783 977.70842,239.59358 C 972.6214,235.03561 969.69414,247.33501 971.27491,250.40873 C 974.67566,257.0213 978.93303,239.71945 978.86261,254.08502 C 978.85479,255.6802 979.45891,258.51905 979.69619,260.28343"
       id="path4533" />
    <path
       style="fill:none;fill-rule:evenodd;stroke:#000000;stroke-width:1px;stroke-linecap:butt;stroke-linejoin:miter;stroke-opacity:1"
       d="M 794.25704,217.64268 C 794.23563,222.01194 782.06115,228.26144 778.69691,230.7662 C 769.21343,237.82689 757.65952,242.89247 746.74307,247.30953 C 736.86768,251.30535 725.21385,252.61499 714.66099,252.97358 C 704.01488,253.33534 694.52206,250.18786 684.41706,247.39502 C 672.11486,243.99492 661.05712,240.27393 649.96248,233.90815 C 639.19979,227.73283 628.671,221.22731 618.03001,214.84271 C 609.87242,209.94816 601.85172,204.92246 593.02266,201.31309 C 586.13881,198.49894 579.31264,195.6377 572.31144,193.12693 C 567.14863,191.27544 562.25246,189.0141 557.0078,187.33463 C 553.58327,186.23801 550.61283,184.21448 547.1331,183.10261 C 543.09108,181.81108 546.00302,183.16812 544.18351,183.2736"
       id="path4535" />
    <path
       style="fill:none;fill-rule:evenodd;stroke:#000000;stroke-width:1px;stroke-linecap:butt;stroke-linejoin:miter;stroke-opacity:1"
       d="M 566.94662,182.82475 C 566.94662,182.82475 566.94662,182.82475 566.94662,182.82475 C 565.27234,182.24054 563.59806,181.65632 561.92377,181.0721 C 558.484,179.87184 551.57426,182.44249 548.35141,183.46597 C 546.56758,184.03245 547.79671,185.70155 547.64607,186.30868 C 546.68547,190.18018 555.40338,197.82632 557.86275,200.22303 C 558.11736,200.47115 556.85128,200.88202 556.45208,201.1421"
       id="path4537" />
    <path
       style="fill:none;fill-rule:evenodd;stroke:#000000;stroke-width:1px;stroke-linecap:butt;stroke-linejoin:miter;stroke-opacity:1"
       d="M 704.97866,237.73406 C 706.59148,239.30579 711.16592,229.73137 711.77553,228.4792 C 713.39797,225.14661 712.80802,223.19158 711.60454,220.01518 C 710.44262,216.94848 707.39013,218.78065 705.70537,219.30984 C 702.42896,220.33897 701.37957,226.13918 700.59703,228.79981 C 699.54371,232.38109 700.56155,236.21399 701.19549,239.72182 C 702.09091,244.67647 705.63303,245.6609 710.06562,246.66831 C 713.80068,247.51719 714.40191,245.1813 715.40907,242.62866 C 718.27526,235.36437 698.41692,238.14016 698.4169,238.14016"
       id="path4539" />
    <path
       style="fill:none;fill-rule:evenodd;stroke:#000000;stroke-width:1px;stroke-linecap:butt;stroke-linejoin:miter;stroke-opacity:1"
       d="M 905.46496,231.36467 C 905.78138,230.5627 896.88248,236.27533 888.83614,241.047 C 882.65465,244.71276 876.98236,246.42219 869.8562,246.94617 C 863.01191,247.44943 855.96436,245.70554 849.50833,243.63323 C 845.52992,242.35621 841.60108,239.36103 838.05197,237.19972 C 835.06168,235.3787 832.39907,232.66339 829.58795,230.59521 C 827.32039,228.92694 825.7046,227.03426 823.96664,224.8884 C 823.47567,224.28221 822.30835,222.62139 822.2781,222.58003 C 819.93076,219.371 829.63917,225.62526 833.136,227.51738 C 833.97859,227.97331 835.47003,229.167 835.97871,229.52652 C 838.98582,231.65184 828.86342,227.60188 825.24906,226.89754 C 825.09308,226.86714 823.35977,225.67505 823.06894,225.48687 C 821.8358,224.68896 824.32608,230.17807 824.6506,231.19368 C 825.2809,233.16629 826.34647,237.67633 826.72386,239.03786 C 826.79383,239.29031 826.23938,239.23735 825.99715,239.3371"
       id="path4541" />
    <path
       style="fill:none;fill-rule:evenodd;stroke:#000000;stroke-width:1px;stroke-linecap:butt;stroke-linejoin:miter;stroke-opacity:1"
       d="M 859.12655,269.30317 C 859.17788,269.48839 861.72332,260.90285 861.92651,259.36435 C 862.19941,257.29816 861.3403,256.87718 860.75096,255.38882 C 859.96127,253.39454 854.75617,257.80215 854.29607,258.18879 C 850.84088,261.09231 850.47117,265.95056 850.21367,270.094 C 849.84747,275.98647 854.57599,277.6926 859.38303,278.1733 C 863.89187,278.62419 863.92487,274.99632 863.18757,272.31688 C 861.34507,265.62096 853.41638,268.65852 850.38466,270.84209"
       id="path4543" />
    <path
       style="fill:none;fill-rule:evenodd;stroke:#000000;stroke-width:1px;stroke-linecap:butt;stroke-linejoin:miter;stroke-opacity:1"
       d="M 520.41584,178.4645 C 520.41584,178.4645 520.41584,178.4645 520.41584,178.4645 C 519.98124,177.26756 519.54664,176.07063 519.11204,174.8737 C 517.69335,170.96648 503.23903,174.19706 500.88018,174.76683 C 492.58786,176.7698 489.32279,182.6801 487.6498,190.60482 C 485.66165,200.02238 494.76945,208.44342 502.56871,211.70076 C 508.67423,214.25072 515.33137,212.86711 520.71508,209.75575 C 525.0188,207.26853 526.52861,201.81547 527.66156,197.40169 C 528.28784,194.96183 529.44343,192.52806 530.44016,190.32696 C 531.36542,188.28367 532.7757,194.39023 533.21875,195.54217 C 533.44844,196.13935 533.38974,196.81035 533.47524,197.44444 C 534.05546,201.74775 525.67243,191.62649 521.42041,192.50709 C 518.53902,193.10382 518.77036,195.73344 518.42808,197.85054"
       id="path4545" />
    <path
       style="fill:none;fill-rule:evenodd;stroke:#000000;stroke-width:1px;stroke-linecap:butt;stroke-linejoin:miter;stroke-opacity:1"
       d="M 530.76076,189.47201 C 527.26786,190.19539 523.10093,191.58114 519.28303,193.29792 C 518.59216,193.60858 519.64567,194.18087 519.77463,194.49485"
       id="path4547" />
    <path
       style="fill:none;fill-rule:evenodd;stroke:#000000;stroke-width:1px;stroke-linecap:butt;stroke-linejoin:miter;stroke-opacity:1"
       d="M 519.796,219.03198 C 516.64997,220.44664 522.22651,225.49811 523.15169,228.82118 C 523.38363,229.65426 523.27555,230.12856 523.34405,230.85169 C 523.49036,232.39602 524.34026,234.21111 524.86159,235.70355 C 525.49931,237.52918 525.20287,239.61952 525.22495,241.47448 C 525.24783,243.39685 520.97553,242.7817 519.98837,242.79965 C 516.86004,242.85653 515.34687,241.06336 513.34111,239.12336 C 511.03055,236.88855 514.09604,233.98543 515.26476,232.58297 C 516.5584,231.0306 521.11054,231.96389 522.91658,232.09138 C 523.88913,232.16003 522.81887,232.48223 522.72421,232.86083"
       id="path4549" />
    <path
       style="fill:none;fill-rule:evenodd;stroke:#000000;stroke-width:1px;stroke-linecap:butt;stroke-linejoin:miter;stroke-opacity:1"
       d="M 803.49053,220.87013 C 808.43818,221.21937 799.57486,229.99653 797.99746,234.69898 C 795.77613,241.32105 792.05965,247.49297 789.7258,254.12777 C 787.55473,260.29982 786.35044,266.63248 783.65564,272.59474 C 780.46878,279.64566 778.78256,287.67603 777.0725,295.18685 C 775.43328,302.38658 772.7951,309.54164 772.54126,316.94539 C 772.38487,321.5068 771.445,326.03185 771.08784,330.49638 C 770.96115,332.07993 772.2444,331.32978 772.54126,331.54369"
       id="path4551" />
    <path
       style="fill:none;fill-rule:evenodd;stroke:#000000;stroke-width:1px;stroke-linecap:butt;stroke-linejoin:miter;stroke-opacity:1"
       d="M 763.15816,312.07216 C 762.85197,315.89949 765.10621,322.12139 766.36423,326.072 C 767.02802,328.15654 768.25119,329.55605 769.42068,331.18034 C 770.66006,332.9017 771.86992,330.46796 772.81912,329.87654 C 776.08557,327.84129 778.30175,322.12976 779.87247,318.84765 C 780.01988,318.53965 780.14321,318.22069 780.27858,317.90721"
       id="path4553" />
    <path
       style="fill:none;fill-rule:evenodd;stroke:#000000;stroke-width:1px;stroke-linecap:butt;stroke-linejoin:miter;stroke-opacity:1"
       d="M 800.79743,278.49391 C 802.0556,275.86489 798.74806,272.88636 796.67228,271.29094 C 791.65412,267.434 790.49825,281.35787 791.41433,283.49538 C 794.50578,290.70877 800.5397,269.70254 800.98979,285.05567 C 801.04267,286.85924 804.27987,289.20023 805.54241,290.39912"
       id="path4555" />
    <path
       style="fill:none;fill-rule:evenodd;stroke:#000000;stroke-width:1px;stroke-linecap:butt;stroke-linejoin:miter;stroke-opacity:1"
       d="M 771.7718,332.48414 C 771.88398,336.31085 763.87951,333.09989 760.57193,335.02763 C 754.17697,338.75475 758.71943,348.68188 761.4055,353.02437 C 765.03122,358.88594 773.46979,360.13887 779.55187,359.92811 C 785.76128,359.71293 787.45267,351.99677 788.25101,347.36031 C 789.2018,341.83837 787.19338,338.27806 783.9335,334.02306 C 779.39085,328.09371 766.43491,329.64536 763.43602,334.02306"
       id="path4557" />
    <path
       style="fill:none;fill-rule:evenodd;stroke:#000000;stroke-width:1px;stroke-linecap:butt;stroke-linejoin:miter;stroke-opacity:1"
       d="M 509.45108,508.88217 C 510.53382,504.58685 512.53279,501.84324 515.99146,499.19983 C 520.83328,495.4993 528.46368,495.41807 533.34699,498.23801 C 538.91841,501.45531 542.03825,509.11317 542.92245,514.99507 C 543.55413,519.19707 543.5025,521.53109 541.85376,525.12626 C 540.94754,527.10233 535.89163,527.84179 534.05233,528.37508 C 530.49601,529.4062 525.54203,528.26766 521.9975,527.71249 C 517.80595,527.05598 515.64374,524.11144 513.106,521.15073 C 510.18715,517.74541 511.5391,512.71778 509.45108,508.88217"
       id="path2262" />
    <path
       style="fill:none;fill-rule:evenodd;stroke:#000000;stroke-width:1px;stroke-linecap:butt;stroke-linejoin:miter;stroke-opacity:1"
       d="M 543.99115,511.44702 C 540.6258,505.26503 558.07318,511.11761 565.08709,510.52795 C 577.58906,509.4769 589.89707,507.91417 602.46988,507.7921 C 607.75624,507.74078 613.61686,508.39057 618.6926,508.39057 C 618.97543,508.39057 618.32212,507.96309 618.13688,507.74935"
       id="path2264" />
    <path
       style="fill:none;fill-rule:evenodd;stroke:#000000;stroke-width:1px;stroke-linecap:butt;stroke-linejoin:miter;stroke-opacity:1"
       d="M 608.11256,500.54638 C 614.27723,500.54638 622.19251,506.28413 621.00097,511.34015 C 620.27077,514.43856 612.46072,517.86736 611.68199,518.24389"
       id="path2266" />
    <path
       style="fill:none;fill-rule:evenodd;stroke:#000000;stroke-width:1px;stroke-linecap:butt;stroke-linejoin:miter;stroke-opacity:1"
       d="M 646.00832,498.02427 C 645.02775,502.18506 637.22477,496.65063 633.18404,498.04565 C 628.27884,499.73911 625.16445,503.30025 622.64675,507.55699 C 619.82868,512.32156 621.95968,515.917 625.66046,519.26984 C 630.6557,523.79544 639.00425,525.41801 645.4526,525.68198 C 650.47931,525.88775 653.72544,521.61609 655.8189,517.77367 C 657.44378,514.79128 654.01947,508.95064 653.08305,506.12495 C 650.51064,498.36259 642.1535,496.441 635.38554,496.6991"
       id="path2268" />
    <path
       style="fill:none;fill-rule:evenodd;stroke:#000000;stroke-width:1px;stroke-linecap:butt;stroke-linejoin:miter;stroke-opacity:1"
       d="M 588.51278,494.51897 C 587.56208,496.86294 585.89412,489.66084 583.51131,488.81216 C 578.65681,487.08316 578.03408,493.7699 578.53121,496.27162 C 579.42144,500.75146 586.60734,493.40794 594.73256,501.46546 C 596.9354,503.64994 599.72429,503.04132 602.14927,503.17536"
       id="path2274" />
    <path
       style="fill:none;fill-rule:evenodd;stroke:#000000;stroke-width:1px;stroke-linecap:butt;stroke-linejoin:miter;stroke-opacity:1"
       d="M 883.5568,494.75408 C 887.30098,490.16936 880.5868,489.62142 877.46526,490.07322 C 869.93459,491.16319 869.41969,500.41538 869.94168,506.01808 C 870.93386,516.66744 882.77622,520.30401 891.59335,519.35533 C 898.32244,518.63132 902.11826,512.18389 903.09246,506.33869 C 904.44909,498.19888 896.71811,492.56413 890.35367,490.05185 C 882.28836,486.86817 876.73126,488.48567 870.96763,494.21974"
       id="path2278" />
    <path
       style="fill:none;fill-rule:evenodd;stroke:#000000;stroke-width:1px;stroke-linecap:butt;stroke-linejoin:miter;stroke-opacity:1"
       d="M 653.66014,537.58719 C 654.90546,539.67529 648.83045,534.87998 646.58541,535.81316 C 639.1902,538.88708 646.10616,545.43049 649.87698,546.99166 C 651.46112,547.64752 655.11712,548.02526 656.1395,548.18859"
       id="path2282" />
    <path
       style="fill:none;fill-rule:evenodd;stroke:#000000;stroke-width:1px;stroke-linecap:butt;stroke-linejoin:miter;stroke-opacity:1"
       d="M 764.24821,493.96325 C 764.69579,494.14855 761.84729,486.45743 761.23451,485.39235 C 757.18434,478.35279 745.7818,473.19453 738.87751,470.00321 C 726.69969,464.37436 714.37246,459.66736 701.21686,457.09344 C 690.12977,454.92422 679.24581,453.96022 668.17296,456.49497 C 660.11099,458.34048 651.79895,463.39705 646.22206,469.42612 C 642.24864,473.7217 638.19603,477.81374 637.56567,483.74657 C 637.30129,486.2348 637.91304,488.2072 638.24963,490.4152 C 638.37669,491.24874 638.63991,492.01181 638.71985,492.33884 C 638.80134,492.67219 639.17583,492.85181 639.40381,493.1083 C 641.19557,495.12402 643.22009,489.28075 645.32436,487.59386 C 648.09164,485.37546 652.99043,480.2078 647.99608,486.18318 C 645.2964,489.41316 642.66542,491.76352 639.14733,493.45028 C 636.66708,494.63944 630.96957,491.33267 629.08027,490.3297 C 628.49693,490.02003 628.11132,489.432 627.62685,488.98315"
       id="path2284" />
    <path
       style="fill:none;fill-rule:evenodd;stroke:#000000;stroke-width:1px;stroke-linecap:butt;stroke-linejoin:miter;stroke-opacity:1"
       d="M 693.3513,430.56854 C 688.88881,428.19956 692.27479,440.62848 692.17574,445.67982 C 692.16517,446.21887 689.47954,444.9529 688.3712,444.56838 C 683.94686,443.0334 679.95767,443.02538 675.56829,444.20502 C 665.29436,446.96614 681.50974,450.66822 683.83996,450.72403 C 687.30254,450.80697 690.45182,450.33443 693.82152,449.76221 C 694.49131,449.64848 694.26919,448.28147 694.37724,447.92407 C 694.93839,446.06797 692.48752,443.37022 691.81239,442.32413"
       id="path2286" />
    <path
       style="fill:none;fill-rule:evenodd;stroke:#000000;stroke-width:1px;stroke-linecap:butt;stroke-linejoin:miter;stroke-opacity:1"
       d="M 906.96111,74.673298 C 905.08939,68.083278 905.98506,88.339888 905.46494,95.170778 C 904.47803,108.13225 904.99529,120.45197 902.53673,133.3444 C 900.65329,143.22101 902.02802,153.71934 902.45124,163.6952 C 902.77765,171.38933 902.97471,178.97662 902.17338,186.6293 C 901.75554,190.61966 900.81884,194.56987 900.37798,198.51313 C 900.23246,199.81467 900.23748,198.8117 900.20699,198.87649"
       id="path2298" />
    <path
       style="fill:none;fill-rule:evenodd;stroke:#000000;stroke-width:1px;stroke-linecap:butt;stroke-linejoin:miter;stroke-opacity:1"
       d="M 909.63284,180.21716 C 908.99022,178.00657 900.8625,191.29184 900.22836,192.89182 C 899.33223,195.15284 898.38397,197.34341 897.40702,199.47495 C 896.42954,201.60764 893.74191,193.61416 893.49561,192.93457 C 892.9916,191.54388 892.19564,187.34696 892.10632,186.80029"
       id="path2302" />
    <path
       style="fill:none;fill-rule:evenodd;stroke:#000000;stroke-width:1px;stroke-linecap:butt;stroke-linejoin:miter;stroke-opacity:1"
       d="M 936.49971,79.311418 C 936.26708,78.669528 935.07847,91.535848 935.83712,102.37376 C 936.49706,111.80139 934.83221,121.98612 933.486,131.29251 C 932.33597,139.24275 929.60234,147.1141 927.35172,154.8037 C 925.08599,162.54496 924.80826,170.67512 924.55175,178.67824 C 924.36237,184.5869 924.98919,190.5381 924.95785,196.39713 C 924.95523,196.88743 924.38789,197.19508 924.1029,197.59406"
       id="path2304" />
    <path
       style="fill:none;fill-rule:evenodd;stroke:#000000;stroke-width:1px;stroke-linecap:butt;stroke-linejoin:miter;stroke-opacity:1"
       d="M 914.57018,177.95153 C 914.54992,181.74166 920.00733,191.32392 922.00827,195.47805 C 922.52189,196.54438 925.09829,196.26936 926.06929,196.39713 C 930.43259,196.97125 928.77945,183.06602 928.46316,181.39272"
       id="path2306" />
    <path
       style="fill:none;fill-rule:evenodd;stroke:#000000;stroke-width:1px;stroke-linecap:butt;stroke-linejoin:miter;stroke-opacity:1"
       d="M 893.51699,131.84823 C 895.49488,132.10848 891.66459,128.31443 890.73839,126.54753 C 888.86962,122.98249 884.25342,135.64848 887.40408,138.15351 C 891.2886,141.24202 892.86964,125.7848 894.1582,137.85427 C 894.17253,137.98851 896.35187,139.85016 896.7658,140.22677"
       id="path2308" />
    <path
       style="fill:none;fill-rule:evenodd;stroke:#000000;stroke-width:1px;stroke-linecap:butt;stroke-linejoin:miter;stroke-opacity:1"
       d="M 936.15773,142.89849 C 936.62127,147.24036 941.38382,135.60172 942.31338,131.33526 C 943.21456,127.19908 941.78741,128.62471 940.176,126.86814 C 937.66513,124.13106 933.83009,137.79958 933.69974,138.53823 C 932.8517,143.3438 931.99709,150.21416 937.20505,154.3976 C 941.57299,157.90628 942.31672,146.93181 942.07827,145.59159 C 940.97271,139.37756 933.96244,145.32703 932.73792,146.68165"
       id="path2310" />
    <path
       style="fill:none;fill-rule:evenodd;stroke:#000000;stroke-width:1px;stroke-linecap:butt;stroke-linejoin:miter;stroke-opacity:1"
       d="M 924.63725,41.714898 C 923.4878,35.254218 914.68032,39.187728 910.93664,40.945438 C 904.97581,43.744118 900.73818,50.658438 897.49251,56.078088 C 894.5702,60.957808 895.56144,65.837918 898.66807,70.035188 C 902.63831,75.399228 911.29199,76.535798 917.24191,77.857998 C 924.26842,79.419448 930.78122,78.069598 936.52108,73.946588 C 940.73914,70.916718 941.0733,66.052978 940.51798,61.464288 C 939.89757,56.337678 936.2362,51.248008 933.0799,47.400328 C 928.76758,42.143398 925.20406,42.185018 921.0037,38.701188"
       id="path2312" />
    <path
       style="fill:none;fill-rule:evenodd;stroke:#000000;stroke-width:1px;stroke-linecap:butt;stroke-linejoin:miter;stroke-opacity:1"
       d="M 534.13782,156.02201 C 533.84182,155.66117 528.79244,176.01726 528.51651,178.18664 C 528.29527,179.92599 528.61625,181.69195 528.66612,183.4446"
       id="path2314" />
    <path
       style="fill:none;fill-rule:evenodd;stroke:#000000;stroke-width:1px;stroke-linecap:butt;stroke-linejoin:miter;stroke-opacity:1"
       d="M 533.41111,159.76242 C 533.16605,161.68909 538.25086,174.93024 539.52402,179.53319 C 539.93823,181.03073 539.6702,179.42182 539.07517,179.87518"
       id="path2316" />
    <path
       style="fill:none;fill-rule:evenodd;stroke:#000000;stroke-width:1px;stroke-linecap:butt;stroke-linejoin:miter;stroke-opacity:1"
       d="M 528.36689,176.00652 C 529.31748,179.44326 535.29587,173.97424 538.86143,173.93326"
       id="path2318" />
    <path
       style="fill:none;fill-rule:evenodd;stroke:#000000;stroke-width:1px;stroke-linecap:butt;stroke-linejoin:miter;stroke-opacity:1"
       d="M 663.49209,142.77025 C 664.8366,147.63118 663.71079,156.66412 664.34704,162.94712 C 664.38155,163.28792 664.36706,163.00716 664.2188,162.56239 C 666.91225,161.89245 696.47858,160.12273 675.20494,153.67089 C 654.0915,147.26764 682.78918,153.77091 678.582,147.19463 C 675.75721,142.77918 664.0202,147.9853 663.49209,142.77025 z "
       id="path2320" />
    <path
       style="fill:none;fill-rule:evenodd;stroke:#000000;stroke-width:1px;stroke-linecap:butt;stroke-linejoin:miter;stroke-opacity:1"
       d="M 812.55301,188.95904 C 815.64426,189.89655 809.62279,181.86761 806.41873,181.45684 C 797.78467,180.34991 794.07172,197.04171 796.05243,202.48866 C 798.90623,210.3366 813.50834,211.98081 818.90103,210.54659"
       id="path2322" />
    <path
       style="fill:none;fill-rule:evenodd;stroke:#000000;stroke-width:1px;stroke-linecap:butt;stroke-linejoin:miter;stroke-opacity:1"
       d="M 908.22216,209.11454 C 910.36445,215.00583 906.69038,225.79076 906.25577,232.45474 C 906.2483,232.56937 906.14178,232.65423 906.08478,232.75397"
       id="path2324" />
    <path
       style="fill:none;fill-rule:evenodd;stroke:#000000;stroke-width:1px;stroke-linecap:butt;stroke-linejoin:miter;stroke-opacity:1"
       d="M 904.41763,208.25959 C 904.17933,211.91353 912.50386,207.1186 915.33964,209.43515 C 925.93577,218.09114 909.10002,229.50132 900.80545,227.32502 C 899.42006,226.96153 897.66791,225.48473 896.3597,224.71742"
       id="path2326" />
    <path
       style="fill:none;fill-rule:evenodd;stroke:#000000;stroke-width:1px;stroke-linecap:butt;stroke-linejoin:miter;stroke-opacity:1"
       d="M 770.59623,338.3192 C 767.14193,337.41287 777.89213,338.29541 781.24039,339.5375"
       id="path2328" />
    <path
       style="fill:none;fill-rule:evenodd;stroke:#000000;stroke-width:1px;stroke-linecap:butt;stroke-linejoin:miter;stroke-opacity:1"
       d="M 763.56425,336.31006 C 758.59451,335.00612 762.26373,346.67693 763.24364,351.72057 C 763.61142,353.61356 776.06697,353.38733 778.14118,353.79383 C 778.33595,353.832 778.51166,353.93632 778.6969,354.00757"
       id="path2330" />
    <path
       style="fill:none;fill-rule:evenodd;stroke:#000000;stroke-width:1px;stroke-linecap:butt;stroke-linejoin:miter;stroke-opacity:1"
       d="M 761.34137,343.04281 C 765.33338,343.82516 774.23282,343.49772 778.63278,344.94508"
       id="path2332" />
    <path
       style="fill:none;fill-rule:evenodd;stroke:#000000;stroke-width:1px;stroke-linecap:butt;stroke-linejoin:miter;stroke-opacity:1"
       d="M 911.51373,67.470328 C 911.39974,67.249468 911.18149,67.056098 911.17175,66.807738 C 911.09305,64.800778 913.4655,50.714588 913.45875,50.713268 C 913.61763,54.764678 921.74574,49.732918 925.62044,50.927008"
       id="path2334" />
    <path
       style="fill:none;fill-rule:evenodd;stroke:#000000;stroke-width:1px;stroke-linecap:butt;stroke-linejoin:miter;stroke-opacity:1"
       d="M 914.99766,59.305538 C 915.13148,62.717808 921.84945,59.615558 925.19297,60.310108"
       id="path2336" />
    <path
       style="fill:none;fill-rule:evenodd;stroke:#000000;stroke-width:1px;stroke-linecap:butt;stroke-linejoin:miter;stroke-opacity:1"
       d="M 764.05585,335.5406 C 764.11293,336.9962 766.74894,336.65204 768.09549,337.20776 C 768.53557,337.38938 768.98637,337.61412 769.3138,337.76348 C 769.58406,337.88675 769.25932,337.7889 768.99319,337.91309"
       id="path2338" />
    <path
       style="fill:none;fill-rule:evenodd;stroke:#000000;stroke-width:1px;stroke-linecap:butt;stroke-linejoin:miter;stroke-opacity:1"
       d="M 869.66382,364.73722 C 869.66382,364.73722 869.66382,364.73722 869.66382,364.73722 z "
       id="path2340" />
    <path
       style="fill:none;fill-rule:evenodd;stroke:#000000;stroke-width:1px;stroke-linecap:butt;stroke-linejoin:miter;stroke-opacity:1"
       d="M 521.76239,521.72782 C 521.26033,521.02122 520.96395,524.2041 521.18529,520.91562 C 521.59582,514.81636 532.00503,505.8833 526.44325,503.34635 C 526.42984,503.54563 528.35767,491.28815 530.76076,503.3036 C 531.66433,507.82146 533.31082,512.22007 533.68897,516.81185"
       id="path2342" />
    <path
       style="fill:none;fill-rule:evenodd;stroke:#000000;stroke-width:1px;stroke-linecap:butt;stroke-linejoin:miter;stroke-opacity:1"
       d="M 522.70283,512.83632 C 523.48662,516.75522 530.54758,510.91825 534.54392,510.95543"
       id="path2344" />
    <path
       style="fill:none;fill-rule:evenodd;stroke:#000000;stroke-width:1px;stroke-linecap:butt;stroke-linejoin:miter;stroke-opacity:1"
       d="M 634.6802,502.983 C 635.53118,507.23787 633.80656,515.85342 633.31228,521.2576 C 633.3063,521.32301 633.18404,521.2291 633.11991,521.21485 C 635.00081,520.89424 636.85481,520.22275 638.7626,520.25303 C 647.15123,520.38618 646.4858,512.16405 639.36107,511.98137 C 630.53613,511.75509 645.37897,512.53063 644.93963,508.21958 C 644.55036,504.39984 634.33048,506.80657 634.6802,502.983 z "
       id="path2346" />
    <path
       style="fill:none;fill-rule:evenodd;stroke:#000000;stroke-width:1px;stroke-linecap:butt;stroke-linejoin:miter;stroke-opacity:1"
       d="M 890.33229,498.19527 C 884.71569,498.10611 886.88519,494.50971 880.99194,498.409 C 872.63323,503.93958 883.58187,510.88695 888.47277,511.55389 C 889.51023,511.69536 891.01221,511.34476 892.10632,511.25466"
       id="path2348" />
    <path
       style="fill:none;fill-rule:evenodd;stroke:#000000;stroke-width:1px;stroke-linecap:butt;stroke-linejoin:miter;stroke-opacity:1"
       d="M 536.61718,657.02401 C 537.88214,653.25601 537.62914,653.39253 533.73171,652.45002 C 524.8564,650.3037 520.35697,659.74857 517.74411,666.21475 C 511.45183,681.78654 517.36593,698.95333 532.21417,706.76086 C 543.40416,712.64479 559.34214,702.37298 566.09166,694.12894 C 572.6333,686.13878 571.9303,674.31528 565.96341,666.59948 C 559.18989,657.84061 546.7489,653.11492 536.61718,657.02401 z "
       id="path2531" />
    <path
       style="fill:none;fill-rule:evenodd;stroke:#000000;stroke-width:1px;stroke-linecap:butt;stroke-linejoin:miter;stroke-opacity:1"
       d="M 528.23865,692.56865 C 525.02924,688.41855 533.85473,671.34086 542.34536,676.17494 C 550.17332,680.63174 545.67369,690.52681 542.73009,695.94571"
       id="path2533" />
    <path
       style="fill:none;fill-rule:evenodd;stroke:#000000;stroke-width:1px;stroke-linecap:butt;stroke-linejoin:miter;stroke-opacity:1"
       d="M 530.09817,685.60079 C 534.77154,688.26154 540.99685,685.04458 546.21402,686.34887"
       id="path2535" />
    <path
       style="fill:none;fill-rule:evenodd;stroke:#000000;stroke-width:1px;stroke-linecap:butt;stroke-linejoin:miter;stroke-opacity:1"
       d="M 630.38406,658.11407 C 636.11553,661.37725 617.61276,654.21289 611.01939,654.05305 C 596.85619,653.7097 583.96559,656.85892 570.85801,661.61938 C 568.56305,662.45287 567.03798,661.57298 565.57868,661.55526"
       id="path2537" />
    <path
       style="fill:none;fill-rule:evenodd;stroke:#000000;stroke-width:1px;stroke-linecap:butt;stroke-linejoin:miter;stroke-opacity:1"
       d="M 579.79226,649.2012 C 575.07108,650.91586 559.9063,662.82609 567.6092,666.04376 C 570.31309,667.17323 576.13534,666.42784 579.34341,666.92008"
       id="path2539" />
    <path
       style="fill:none;fill-rule:evenodd;stroke:#000000;stroke-width:1px;stroke-linecap:butt;stroke-linejoin:miter;stroke-opacity:1"
       d="M 631.66649,681.51839 C 638.61391,684.42048 616.79394,678.78459 609.26674,678.61155 C 597.07956,678.33139 584.41916,679.86515 572.48242,682.35197 C 570.72043,682.71905 569.17891,682.61793 567.4382,682.75807"
       id="path2541" />
    <path
       style="fill:none;fill-rule:evenodd;stroke:#000000;stroke-width:1px;stroke-linecap:butt;stroke-linejoin:miter;stroke-opacity:1"
       d="M 590.07307,673.18261 C 582.81541,674.69462 571.49739,674.63489 566.28402,684.91683 C 565.65336,686.16062 581.60224,691.05395 583.27619,691.69232"
       id="path2543" />
    <path
       style="fill:none;fill-rule:evenodd;stroke:#000000;stroke-width:1px;stroke-linecap:butt;stroke-linejoin:miter;stroke-opacity:1"
       d="M 625.68183,705.0082 C 624.74245,706.86087 589.3758,702.82393 586.39677,702.72121 C 581.17283,702.54107 574.74467,702.71789 569.7252,702.93494"
       id="path2545" />
    <path
       style="fill:none;fill-rule:evenodd;stroke:#000000;stroke-width:1px;stroke-linecap:butt;stroke-linejoin:miter;stroke-opacity:1"
       d="M 591.74022,695.75335 C 585.33386,695.53244 573.7545,697.08337 566.26265,702.3151 C 565.07008,703.1479 581.56414,708.33772 583.38306,708.66312"
       id="path2547" />
    <path
       style="fill:none;fill-rule:evenodd;stroke:#000000;stroke-width:1px;stroke-linecap:butt;stroke-linejoin:miter;stroke-opacity:1"
       d="M 602.27751,638.77078 C 600.25515,640.18304 598.76358,634.09756 596.31422,634.38915 C 589.32774,635.22087 591.63176,647.35427 602.27751,638.77078 C 604.76101,636.76838 601.88647,645.51883 603.51719,648.26075"
       id="path2549" />
    <path
       style="fill:none;fill-rule:evenodd;stroke:#000000;stroke-width:1px;stroke-linecap:butt;stroke-linejoin:miter;stroke-opacity:1"
       d="M 596.14323,666.44986 C 596.14323,666.44986 596.14323,666.44986 596.14323,666.44986 C 597.9315,665.15318 599.71978,663.8565 601.50805,662.55983 C 605.31064,659.80257 605.74403,657.49107 606.10342,654.20267 C 606.20768,653.2487 591.56347,661.57344 601.42256,672.07117 C 603.58417,674.37281 611.337,658.85297 596.14323,666.44986 z "
       id="path2551" />
    <path
       style="fill:none;fill-rule:evenodd;stroke:#000000;stroke-width:1px;stroke-linecap:butt;stroke-linejoin:miter;stroke-opacity:1"
       d="M 604.26527,695.06938 C 605.64843,696.54214 603.46732,691.10811 603.06834,689.12747 C 603.0178,688.8766 587.58252,698.48844 605.03473,703.49066"
       id="path2553" />
    <path
       style="fill:none;fill-rule:evenodd;stroke:#000000;stroke-width:1px;stroke-linecap:butt;stroke-linejoin:miter;stroke-opacity:1"
       d="M 651.39451,659.82398 C 656.72535,661.35192 640.06442,662.80476 636.34735,666.92008 C 626.41476,677.91688 628.73157,693.8083 637.33055,704.32424 C 645.61671,714.45764 662.32036,716.32401 674.15762,714.26306 C 686.72417,712.07514 692.73807,700.00894 693.30855,688.80686 C 693.83082,678.55122 689.45011,670.41809 682.30104,663.60714 C 673.77117,655.48072 661.28683,654.99209 651.39451,659.82398 z "
       id="path2555" />
    <path
       style="fill:none;fill-rule:evenodd;stroke:#000000;stroke-width:1px;stroke-linecap:butt;stroke-linejoin:miter;stroke-opacity:1"
       d="M 652.35633,674.59328 C 646.69245,669.19728 650.55433,690.24117 648.12432,697.67699"
       id="path2557" />
    <path
       style="fill:none;fill-rule:evenodd;stroke:#000000;stroke-width:1px;stroke-linecap:butt;stroke-linejoin:miter;stroke-opacity:1"
       d="M 654.27998,679.12453 C 649.13122,674.21929 660.66394,674.63986 662.85087,674.82839 C 671.68008,675.58953 671.03404,680.98581 663.55621,683.46341 C 652.28051,687.19933 656.3965,680.43922 664.94551,690.64501 C 675.29522,703.00048 653.20836,703.09471 646.00831,695.3045 C 643.22514,692.2932 645.95605,694.95606 645.88007,694.44954"
       id="path2559" />
    <text
       xml:space="preserve"
       style="font-size:20px;font-style:normal;font-variant:normal;font-weight:normal;font-stretch:normal;text-align:start;line-height:125%;writing-mode:lr-tb;text-anchor:start;fill:#000000;fill-opacity:1;stroke:none;stroke-width:1px;stroke-linecap:butt;stroke-linejoin:miter;stroke-opacity:1;font-family:Courier"
       x="960.24597"
       y="164.20818"
       id="text2579"
       sodipodi:linespacing="125%"><tspan
         sodipodi:role="line"
         id="tspan2581"
         x="960.24597"
         y="164.20818">complex</tspan></text>
    <text
       xml:space="preserve"
       style="font-size:20px;font-style:normal;font-variant:normal;font-weight:normal;font-stretch:normal;text-align:start;line-height:125%;writing-mode:lr-tb;text-anchor:start;fill:#000000;fill-opacity:1;stroke:none;stroke-width:1px;stroke-linecap:butt;stroke-linejoin:miter;stroke-opacity:1;font-family:Courier"
       x="919.44342"
       y="507.04398"
       id="text2583"
       sodipodi:linespacing="125%"><tspan
         sodipodi:role="line"
         id="tspan2585"
         x="919.44342"
         y="507.04398">simple</tspan></text>
    <text
       xml:space="preserve"
       style="font-size:20px;font-style:normal;font-variant:normal;font-weight:normal;font-stretch:normal;text-align:start;line-height:125%;writing-mode:lr-tb;text-anchor:start;fill:#000000;fill-opacity:1;stroke:none;stroke-width:1px;stroke-linecap:butt;stroke-linejoin:miter;stroke-opacity:1;font-family:Courier"
       x="714.25488"
       y="684.12598"
       id="text2587"
       sodipodi:linespacing="125%"><tspan
         sodipodi:role="line"
         id="tspan2589"
         x="714.25488"
         y="684.12598">no trans from initial</tspan></text>
    <path
       style="fill:none;fill-rule:evenodd;stroke:#000000;stroke-width:1px;stroke-linecap:butt;stroke-linejoin:miter;stroke-opacity:1"
       d="M 662.16691,653.43321 C 662.37682,648.0866 664.14251,642.91198 666.07832,637.85171 C 668.38386,631.82495 673.02987,625.91772 678.34688,622.50531 C 685.43761,617.95455 694.58518,618.02306 698.80161,625.49765 C 701.20855,629.76449 697.85264,635.52495 695.61692,639.04864 C 692.5454,643.88962 685.19684,646.80277 680.67663,649.99203 C 679.14939,651.06958 678.01203,652.61388 676.67973,653.92481"
       id="path2591" />
    <path
       style="fill:none;fill-rule:evenodd;stroke:#000000;stroke-width:1px;stroke-linecap:butt;stroke-linejoin:miter;stroke-opacity:1"
       d="M 679.65068,641.72037 C 674.85425,645.10451 675.19752,653.3253 676.295,656.12631 C 677.82756,660.03777 684.7143,654.52387 688.86279,655.18586"
       id="path2593" />
    <path
       style="fill:none;fill-rule:evenodd;stroke:#000000;stroke-width:1px;stroke-linecap:butt;stroke-linejoin:miter;stroke-opacity:1"
       d="M 717.35408,607.62915 C 718.8775,611.51728 714.54905,625.73223 714.01976,631.46094 C 713.68967,635.03371 709.38676,624.97039 705.8336,624.4717 C 699.51234,623.58451 699.46171,634.11522 710.7282,633.25634 C 711.33541,633.21005 711.93938,633.38458 712.54497,633.4487 C 712.64567,633.45936 712.38823,633.57695 712.30986,633.64107"
       id="path2595" />
    <path
       style="fill:none;fill-rule:evenodd;stroke:#000000;stroke-width:1px;stroke-linecap:butt;stroke-linejoin:miter;stroke-opacity:1"
       d="M 680.18503,712.29667 C 684.25099,712.72718 681.20539,720.65108 683.30561,724.15913 C 687.29674,730.82565 696.66641,731.55116 703.4611,730.74227 C 710.06886,729.95563 716.44374,725.23964 719.44871,719.69201 C 721.74491,715.45288 717.3838,708.35435 715.45181,704.77309 C 713.26305,700.71588 708.42404,699.03824 704.38018,697.9121 C 702.0273,697.25687 698.62445,698.37415 696.21538,698.72431 C 695.58588,698.8158 694.01698,698.87994 693.80014,698.8953"
       id="path2597" />
    <path
       style="fill:none;fill-rule:evenodd;stroke:#000000;stroke-width:1px;stroke-linecap:butt;stroke-linejoin:miter;stroke-opacity:1"
       d="M 703.78171,689.44807 C 701.15139,689.83039 696.17039,697.02187 694.63372,699.87849 C 693.08937,702.74939 700.88594,701.90268 703.69622,703.55479"
       id="path2599" />
    <path
       style="fill:none;fill-rule:evenodd;stroke:#000000;stroke-width:1px;stroke-linecap:butt;stroke-linejoin:miter;stroke-opacity:1"
       d="M 727.99823,709.53945 C 731.75229,711.74638 730.27758,701.13284 730.15699,700.56245 C 729.67263,698.27156 723.93693,705.75766 723.85171,705.88453 C 719.85537,711.83464 722.9604,716.5604 728.78906,717.49051 C 730.58838,717.77763 732.78323,716.34932 734.02565,715.99434"
       id="path2601" />
    <text
       xml:space="preserve"
       style="font-size:20px;font-style:normal;font-variant:normal;font-weight:normal;font-stretch:normal;text-align:start;line-height:125%;writing-mode:lr-tb;text-anchor:start;fill:#000000;fill-opacity:1;stroke:none;stroke-width:1px;stroke-linecap:butt;stroke-linejoin:miter;stroke-opacity:1;font-family:Courier"
       x="758.09253"
       y="711.59137"
       id="text2603"
       sodipodi:linespacing="125%"><tspan
         sodipodi:role="line"
         id="tspan2605"
         x="758.09253"
         y="711.59137">plus loops</tspan></text>
    <path
       style="fill:none;fill-rule:evenodd;stroke:#000000;stroke-width:1px;stroke-linecap:butt;stroke-linejoin:miter;stroke-opacity:1"
       d="M 283.93605,664.39797 C 283.90755,664.31248 283.90755,664.31248 283.93605,664.39797 C 285.53219,669.18641 291.47016,657.3251 296.16186,655.46372 C 309.08738,650.33566 316.61189,656.55958 323.60583,667.21932 C 328.87631,675.25225 328.98509,689.34776 324.78139,697.69836 C 321.45234,704.31148 314.37035,705.34557 307.74647,705.64942 C 301.0255,705.95772 294.07193,702.50686 288.57416,699.02354 C 283.11288,695.56334 280.07689,690.56572 279.25518,684.33973 C 278.31036,677.18086 285.28641,663.3083 289.47186,659.93085"
       id="path2607" />
    <path
       style="fill:none;fill-rule:evenodd;stroke:#000000;stroke-width:1px;stroke-linecap:butt;stroke-linejoin:miter;stroke-opacity:1"
       d="M 305.4381,650.76149 C 304.54112,643.96514 306.67255,635.38006 312.0426,628.74647 C 318.67234,620.55678 332.41016,613.57912 339.46519,624.64269 C 344.84009,633.07151 328.54078,648.69612 323.41347,653.56145 C 321.96131,654.93941 319.95067,656.55667 318.47612,657.72935"
       id="path2609" />
    <path
       style="fill:none;fill-rule:evenodd;stroke:#000000;stroke-width:1px;stroke-linecap:butt;stroke-linejoin:miter;stroke-opacity:1"
       d="M 325.12337,642.55394 C 320.63844,646.80972 314.80011,657.47461 326.06382,655.20724 C 331.79244,654.05407 327.68196,654.36763 330.59506,652.85612"
       id="path2611" />
    <path
       style="fill:none;fill-rule:evenodd;stroke:#000000;stroke-width:1px;stroke-linecap:butt;stroke-linejoin:miter;stroke-opacity:1"
       d="M 340.55526,603.35438 C 345.02929,602.45377 337.15312,596.57322 335.63928,596.17279 C 327.22615,593.94738 327.85094,616.73178 340.55526,603.35438 C 343.29741,600.46695 340.07076,611.63862 341.77356,615.23822"
       id="path2613" />
    <path
       style="fill:none;fill-rule:evenodd;stroke:#000000;stroke-width:1px;stroke-linecap:butt;stroke-linejoin:miter;stroke-opacity:1"
       d="M 331.96299,675.19175 C 338.4069,668.40643 341.26853,663.73039 353.78564,660.91404 C 365.25696,658.333 374.11696,663.09442 371.95338,675.42686 C 370.59706,683.15789 361.50492,691.61646 354.79021,694.51367 C 348.50378,697.22608 337.24896,693.31819 330.61644,692.71827 C 330.24414,692.68459 331.3574,692.61852 331.72788,692.56865"
       id="path2615" />
    <path
       style="fill:none;fill-rule:evenodd;stroke:#000000;stroke-width:1px;stroke-linecap:butt;stroke-linejoin:miter;stroke-opacity:1"
       d="M 344.01781,683.57028 C 337.24633,682.95778 325.70003,692.91274 334.01487,699.38689 C 336.53698,701.35067 341.73192,701.39425 344.91551,701.95175"
       id="path2617" />
    <path
       style="fill:none;fill-rule:evenodd;stroke:#000000;stroke-width:1px;stroke-linecap:butt;stroke-linejoin:miter;stroke-opacity:1"
       d="M 368.38395,653.04848 C 369.24294,653.71731 375.72245,640.19932 376.18539,638.23644 C 376.53639,636.74821 366.37805,649.49674 370.7137,657.17363 C 374.98588,664.73813 385.14646,658.46406 368.38395,653.04848 C 365.96361,652.26653 368.41245,658.13545 368.4267,660.67893"
       id="path2619" />
    <path
       style="fill:none;fill-rule:evenodd;stroke:#000000;stroke-width:1px;stroke-linecap:butt;stroke-linejoin:miter;stroke-opacity:1"
       d="M 292.57106,658.62705 C 289.41074,657.60602 292.49098,651.30636 290.13445,648.96609 C 282.72944,641.61215 267.65506,637.40684 257.66764,639.96771 C 243.22827,643.67012 247.60106,667.26543 255.20965,674.01619 C 261.10761,679.24918 272.60075,677.23083 276.13461,675.6406 C 276.53889,675.45867 275.50764,675.01363 275.19416,674.70015"
       id="path2621" />
    <path
       style="fill:none;fill-rule:evenodd;stroke:#000000;stroke-width:1px;stroke-linecap:butt;stroke-linejoin:miter;stroke-opacity:1"
       d="M 293.10541,694.96252 C 297.30663,698.41128 292.60899,683.87582 294.25959,678.69705 C 301.3807,656.35458 304.26281,674.05389 303.66407,685.13056 C 303.46451,688.82237 304.52125,693.46832 305.24573,696.73654"
       id="path2627" />
    <path
       style="fill:none;fill-rule:evenodd;stroke:#000000;stroke-width:1px;stroke-linecap:butt;stroke-linejoin:miter;stroke-opacity:1"
       d="M 292.31458,686.54124 C 292.17027,689.21088 296.49243,682.60263 299.1542,682.35197 C 303.59085,681.93417 303.61209,683.10944 306.82739,683.65577"
       id="path2629" />
    <text
       xml:space="preserve"
       style="font-size:20px;font-style:normal;font-variant:normal;font-weight:normal;font-stretch:normal;text-align:start;line-height:125%;writing-mode:lr-tb;text-anchor:start;fill:#000000;fill-opacity:1;stroke:none;stroke-width:1px;stroke-linecap:butt;stroke-linejoin:miter;stroke-opacity:1;font-family:Courier"
       x="255.65849"
       y="722.7912"
       id="text2633"
       sodipodi:linespacing="125%"><tspan
         sodipodi:role="line"
         id="tspan2635"
         x="255.65849"
         y="722.7912">single state</tspan></text>
    <path
       style="fill:none;fill-rule:evenodd;stroke:#000000;stroke-width:1px;stroke-linecap:butt;stroke-linejoin:miter;stroke-opacity:1"
       d="M 626.79327,315.91945 C 626.85026,316.06906 626.96335,316.5284 626.96426,316.3683 C 627.01119,308.10823 627.85147,299.119 631.06803,292.1304 C 631.04426,296.31448 639.71602,292.41106 643.42209,294.35328"
       id="path2653" />
    <path
       style="fill:none;fill-rule:evenodd;stroke:#000000;stroke-width:1px;stroke-linecap:butt;stroke-linejoin:miter;stroke-opacity:1"
       d="M 627.88333,300.76542 C 627.85996,304.8779 636.11129,301.30336 640.15189,302.06922"
       id="path2655" />
    <path
       style="fill:none;fill-rule:evenodd;stroke:#000000;stroke-width:1px;stroke-linecap:butt;stroke-linejoin:miter;stroke-opacity:1"
       d="M 650.32583,287.94114 C 650.30127,292.2625 642.89585,282.96001 638.61298,282.38395 C 627.22417,280.85212 616.08317,283.72257 607.27898,291.04034 C 599.72414,297.31969 601.47991,311.35393 604.56451,319.12552 C 609.07013,330.47734 622.39058,334.06891 633.18403,333.89482 C 642.50761,333.74444 650.93801,330.32253 655.6479,322.18197 C 659.26079,315.93747 658.56683,308.07355 657.46468,301.34251 C 655.95473,292.12104 649.36204,287.25301 640.72899,285.8465"
       id="path2657" />
    <path
       style="fill:none;fill-rule:evenodd;stroke:#000000;stroke-width:1px;stroke-linecap:butt;stroke-linejoin:miter;stroke-opacity:1"
       d="M 813.57895,222.62278 C 811.64315,228.48897 812.05553,235.76281 811.67668,242.32943 C 811.19204,250.72992 807.96812,259.84083 806.14087,268.06349 C 804.43205,275.75317 803.52743,283.56973 801.60962,291.16858 C 799.82171,298.25276 797.10249,305.46946 794.57764,312.32865 C 792.77194,317.23413 790.80871,322.06802 789.3838,327.0552 C 788.72453,329.36264 787.79975,331.33366 786.60521,333.44597 C 786.41957,333.77423 786.75465,333.7598 786.39147,332.99712"
       id="path2751" />
    <path
       style="fill:none;fill-rule:evenodd;stroke:#000000;stroke-width:1px;stroke-linecap:butt;stroke-linejoin:miter;stroke-opacity:1"
       d="M 785.34415,315.08587 C 783.74776,317.90876 783.98252,326.66694 783.61288,330.5605 C 783.1309,335.63729 788.3113,330.09025 789.68304,328.97884 C 791.96644,327.12878 795.96859,326.05732 798.18981,324.59721"
       id="path2753" />
    <path
       style="fill:none;fill-rule:evenodd;stroke:#000000;stroke-width:1px;stroke-linecap:butt;stroke-linejoin:miter;stroke-opacity:1"
       d="M 808.79122,304.05698 C 813.28778,300.41378 816.8522,298.17858 819.69186,292.57925 C 821.38573,289.23922 821.33826,286.42334 820.97429,283.04653 C 820.55516,279.15797 814.00158,287.62426 813.96368,287.68465 C 809.34361,295.04629 807.95699,304.84921 811.65531,312.43552 C 813.56569,316.35425 818.55665,308.70943 819.07202,307.62641 C 821.45828,302.6118 809.14438,304.00175 808.79122,304.05698 z "
       id="path2755" />
    <path
       style="fill:none;fill-rule:evenodd;stroke:#000000;stroke-width:1px;stroke-linecap:butt;stroke-linejoin:miter;stroke-opacity:1"
       d="M 984.69764,255.92317 C 984.70413,255.90952 981.90258,265.10891 978.37099,273.47107"
       id="path2757" />
    <path
       style="fill:none;fill-rule:evenodd;stroke:#000000;stroke-width:1px;stroke-linecap:butt;stroke-linejoin:miter;stroke-opacity:1"
       d="M 1000.5356,245.59963 C 1002.9159,240.59763 989.78034,247.60069 988.8869,248.76295 C 982.67471,256.8443 991.85142,261.82939 998.46237,263.59637 C 1001.0404,264.28544 1001.7691,263.26168 1003.7417,263.06202"
       id="path2759" />
    <path
       style="fill:none;fill-rule:evenodd;stroke:#000000;stroke-width:1px;stroke-linecap:butt;stroke-linejoin:miter;stroke-opacity:1"
       d="M 761.44824,498.53724 C 759.74002,500.99382 761.04572,512.3181 760.99939,515.97827 C 760.99528,516.30277 762.40865,517.69866 762.64517,517.9874"
       id="path2763" />
    <path
       style="fill:none;fill-rule:evenodd;stroke:#000000;stroke-width:1px;stroke-linecap:butt;stroke-linejoin:miter;stroke-opacity:1"
       d="M 757.68645,498.13114 C 757.64208,501.63623 764.59605,500.09025 767.36878,502.23491 C 772.14761,505.93124 770.2209,510.29165 769.39929,515.52942 C 769.04393,517.79485 758.52036,516.29462 757.17348,516.10651 C 757.07575,516.09286 758.17588,516.7109 758.6269,516.98284"
       id="path2765" />
    <path
       style="fill:none;fill-rule:evenodd;stroke:#000000;stroke-width:1px;stroke-linecap:butt;stroke-linejoin:miter;stroke-opacity:1"
       d="M 770.23287,494.60446 C 767.60935,494.23805 766.06358,490.53678 763.41463,490.52206 C 759.61021,490.50093 756.12113,491.45107 752.53536,492.55258 C 748.00799,493.94334 745.25926,496.8819 742.72479,500.6105 C 740.10492,504.46472 746.12662,511.22573 748.00412,514.39661 C 750.72235,518.98741 755.09988,520.8696 759.95207,522.54003 C 765.17653,524.33861 770.12173,522.71553 774.80687,520.53089 C 779.97646,518.12035 781.61827,513.93273 782.03121,508.64705 C 782.35366,504.51974 781.71287,500.94354 779.65872,497.5113 C 776.41949,492.09891 769.77101,494.40216 765.06041,492.33884 C 762.82223,491.35848 762.51851,493.51413 761.08488,494.17698"
       id="path2767" />
    <path
       style="fill:none;fill-rule:evenodd;stroke:#000000;stroke-width:1px;stroke-linecap:butt;stroke-linejoin:miter;stroke-opacity:1"
       d="M 782.45869,506.59517 C 781.83962,506.324 793.94416,504.15422 805.15767,504.03031 C 816.59283,503.90395 828.19074,505.03399 839.54812,506.31731 C 844.7049,506.89999 849.81461,507.24478 854.98001,506.91577 C 858.65925,506.68143 862.21868,505.9457 865.85928,505.52648 C 869.18116,505.14396 866.32522,505.27559 865.30356,505.82571"
       id="path2769" />
    <path
       style="fill:none;fill-rule:evenodd;stroke:#000000;stroke-width:1px;stroke-linecap:butt;stroke-linejoin:miter;stroke-opacity:1"
       d="M 850.748,500.35401 C 857.39871,499.58818 860.54254,500.67229 867.2272,506.83028 C 867.25054,506.85177 855.48168,511.46386 854.3388,512.30197"
       id="path2771" />
    <path
       style="fill:none;fill-rule:evenodd;stroke:#000000;stroke-width:1px;stroke-linecap:butt;stroke-linejoin:miter;stroke-opacity:1"
       d="M 808.87671,491.01366 C 806.92852,492.44234 820.41928,487.47726 826.48873,480.26264 C 831.00005,474.90012 822.19301,475.80777 819.96972,476.20161 C 807.33089,478.44049 809.90592,494.05823 818.17432,499.15708 C 829.04544,505.86094 825.31059,493.03105 816.69953,489.3465 C 815.17918,488.69597 813.14269,493.29085 812.70262,494.04874"
       id="path2773" />
    <path
       style="fill:none;fill-rule:evenodd;stroke:#000000;stroke-width:1px;stroke-linecap:butt;stroke-linejoin:miter;stroke-opacity:1"
       d="M 883.40717,519.80418 C 875.65276,523.95176 866.89442,528.57556 858.18608,531.60252 C 846.98828,535.4948 834.03784,537.98479 822.25672,539.01923 C 813.2953,539.80609 804.2876,537.68713 795.36847,537.11696 C 787.63353,536.62249 779.81313,537.1486 772.15652,538.16428 C 765.14311,539.09463 758.18892,539.83056 751.21019,541.04974 C 742.8575,542.50894 734.36297,543.45038 725.92497,544.23444 C 719.20181,544.85916 712.52295,545.80585 705.79085,546.32907 C 699.41423,546.82466 693.02398,547.15047 686.63992,547.526 C 681.40757,547.83379 676.18287,548.9976 670.93017,549.4069 C 665.93397,549.79621 660.974,550.41124 655.96851,550.68933 C 648.66526,551.09506 640.82355,549.91744 633.52601,549.44965 C 625.14004,548.91208 616.77013,547.98221 608.43316,546.92754 C 601.4408,546.04296 594.80737,544.9536 588.1708,542.52453 C 583.26526,540.72904 578.05573,539.92807 573.27325,537.86504 C 569.35177,536.17342 565.64872,534.46161 561.98788,532.26511 C 558.90775,530.41703 554.17393,529.89512 550.72389,528.71705 C 547.46961,527.60584 544.24315,527.11649 540.84919,526.66517 C 538.16081,526.30767 540.82041,526.73424 541.27667,525.63923 C 542.48893,522.7298 554.74255,521.89051 556.92229,521.64233 C 558.91005,521.416 550.28461,525.11487 548.88574,525.55373 C 545.85587,526.50428 542.9335,527.21615 539.99424,528.4392 C 539.96482,528.45144 540.02274,528.3822 540.03699,528.3537 C 540.70574,527.0162 539.79486,528.40837 541.36216,528.05447 C 544.47028,527.35263 549.18475,534.17075 550.18954,536.45437 C 550.3154,536.74042 550.64552,536.88185 550.87351,537.09559 C 550.91343,537.13301 550.96616,536.2802 550.98037,536.15514"
       id="path2775" />
    <path
       style="fill:none;fill-rule:evenodd;stroke:#000000;stroke-width:1px;stroke-linecap:butt;stroke-linejoin:miter;stroke-opacity:1"
       d="M 656.43873,510.0791 C 661.08287,514.43298 668.83272,506.99714 675.16219,506.31731 C 686.98136,505.04784 698.92807,504.66067 710.77095,503.53871 C 717.43258,502.90761 723.99327,503.4751 730.64858,503.73108 C 734.0212,503.86079 737.40164,503.9269 740.77977,504.03031 C 744.66375,504.14921 741.06099,504.20216 741.54923,504.50053"
       id="path2777" />
    <path
       style="fill:none;fill-rule:evenodd;stroke:#000000;stroke-width:1px;stroke-linecap:butt;stroke-linejoin:miter;stroke-opacity:1"
       d="M 728.48983,498.13114 C 733.93395,498.2978 740.05875,501.0763 743.34463,504.54328 C 746.0806,507.43006 735.98992,507.70161 732.102,508.54018 C 726.542,509.7394 729.35841,510.36467 727.82724,511.3829"
       id="path2779" />
    <path
       style="fill:none;fill-rule:evenodd;stroke:#000000;stroke-width:1px;stroke-linecap:butt;stroke-linejoin:miter;stroke-opacity:1"
       d="M 692.7742,489.49612 C 690.77539,489.92724 691.0811,485.00504 689.07653,484.60152 C 683.13017,483.40453 683.86772,490.98965 685.57123,493.45028 C 689.31749,498.86155 688.14234,487.16578 696.66423,495.45941 C 696.89575,495.68473 699.98804,496.74717 700.74663,497.04107"
       id="path2781" />
    <path
       style="fill:none;fill-rule:evenodd;stroke:#000000;stroke-width:1px;stroke-linecap:butt;stroke-linejoin:miter;stroke-opacity:1"
       d="M 267.67058,667.62542 C 267.84157,667.62542 267.84157,667.62542 267.67058,667.62542 C 264.88887,667.62542 272.0029,671.11578 274.16822,672.862 C 274.88311,673.43852 275.64864,673.97232 276.3056,674.46504 C 276.59276,674.68041 277.01104,675.34683 277.24605,675.6406 C 277.41429,675.8509 277.57378,676.06807 277.73764,676.28181 C 277.80003,676.36319 277.88612,676.19477 277.1178,676.64516 C 275.65307,677.5038 274.12066,678.27683 272.60793,679.0604 C 271.13802,679.8218 269.65465,680.53014 268.20493,681.30465 C 267.30325,681.78637 265.98808,682.27057 265.21259,682.60846 C 264.52918,682.90623 264.35322,683.14556 264.01566,683.35654 C 263.80302,683.48944 263.47249,683.86267 263.07521,684.23286 C 262.5718,684.70195 262.92546,684.00823 263.16071,684.36111"
       id="path2784" />
    <path
       style="fill:none;fill-rule:evenodd;stroke:#000000;stroke-width:1px;stroke-linecap:butt;stroke-linejoin:miter;stroke-opacity:1"
       d="M 284.94062,626.67321 C 284.94062,626.67321 284.94062,626.67321 284.94062,626.67321 C 284.82662,625.44777 284.71263,624.22234 284.59863,622.99691 C 284.44258,621.31931 277.69274,623.44947 276.90406,623.68087 C 274.1927,624.47642 273.09931,627.39164 271.85985,629.49455 C 270.01003,632.633 274.7092,636.91788 276.56208,638.81353 C 278.39704,640.69083 280.32986,639.57099 282.48263,639.00589 C 283.24324,638.80623 282.51951,639.01036 281.77729,638.9204"
       id="path2786" />
  </g>
</svg>
