<?xml version="1.0" encoding="UTF-8" standalone="no"?>
<!-- Created with Inkscape (http://www.inkscape.org/) -->
<svg
   xmlns:dc="http://purl.org/dc/elements/1.1/"
   xmlns:cc="http://web.resource.org/cc/"
   xmlns:rdf="http://www.w3.org/1999/02/22-rdf-syntax-ns#"
   xmlns:svg="http://www.w3.org/2000/svg"
   xmlns="http://www.w3.org/2000/svg"
   xmlns:sodipodi="http://sodipodi.sourceforge.net/DTD/sodipodi-0.dtd"
   xmlns:inkscape="http://www.inkscape.org/namespaces/inkscape"
   width="297mm"
   height="210mm"
   id="svg2160"
   sodipodi:version="0.32"
   inkscape:version="0.45.1"
   sodipodi:docbase="/home/kirill/workspace/XMachineTool/resources/graphLayout"
   sodipodi:docname="RandomPathGeneration.svg"
   inkscape:output_extension="org.inkscape.output.svg.inkscape">
  <defs
     id="defs2162" />
  <sodipodi:namedview
     inkscape:document-units="mm"
     pagecolor="#ffffff"
     bordercolor="#666666"
     borderopacity="1.0"
     inkscape:pageopacity="0.0"
     inkscape:pageshadow="2"
     inkscape:zoom="1.2279853"
     inkscape:cx="498.02159"
     inkscape:cy="412.52238"
     inkscape:current-layer="layer1"
     id="namedview2164"
     inkscape:window-width="1300"
     inkscape:window-height="1159"
     inkscape:window-x="263"
     inkscape:window-y="0" />
  <metadata
     id="metadata2166">
    <rdf:RDF>
      <cc:Work
         rdf:about="">
        <dc:format>image/svg+xml</dc:format>
        <dc:type
           rdf:resource="http://purl.org/dc/dcmitype/StillImage" />
      </cc:Work>
    </rdf:RDF>
  </metadata>
  <g
     inkscape:label="Layer 1"
     inkscape:groupmode="layer"
     id="layer1">
    <flowRoot
       xml:space="preserve"
       id="flowRoot3332"
       transform="translate(1.3465498,-2.308371)"><flowRegion
         id="flowRegion3334"><rect
           id="rect3336"
           width="198.84055"
           height="92.056999"
           x="66.50032"
           y="165.0161" /></flowRegion><flowPara
         id="flowPara3340">Negative (last transition does not exist). Restriction: paths should be of length 2 or over, so that I can remove one element off their ends and it all works out ok.</flowPara></flowRoot>    <flowRoot
       xml:space="preserve"
       id="flowRoot3342"><flowRegion
         id="flowRegion3344"><rect
           id="rect3346"
           width="261.82913"
           height="180.20256"
           x="316.23187"
           y="164.75961" /></flowRegion><flowPara
         id="flowPara3348">Positive: </flowPara><flowPara
         id="flowPara3469">(a) independently generated</flowPara><flowPara
         id="flowPara3350">(b) produced from negatives by removing the last element</flowPara></flowRoot>    <path
       style="opacity:1;fill:none;fill-opacity:1;stroke:#030000;stroke-width:0.99921262;stroke-miterlimit:4;stroke-dasharray:none;stroke-dashoffset:0;stroke-opacity:1"
       d="M 569.44735,141.12017 C 569.73234,140.7497 569.73234,140.7497 569.44735,141.12017 C 567.61569,143.50134 575.29422,139.29369 578.29611,139.41027 C 585.44411,139.68786 594.80031,139.20985 601.65768,141.71864 C 604.62536,142.80438 604.13836,142.12856 605.09886,144.90334 C 608.84179,155.71624 606.40692,168.21083 606.10343,179.37929 C 605.57036,198.99612 607.03434,218.60813 606.50953,238.15725 C 606.14348,251.79252 604.54875,249.00424 609.11714,261.1341 C 610.79572,265.59102 602.13711,267.62348 599.94777,267.69585 C 595.02854,267.85847 568.39917,263.0586 566.28403,265.17374"
       id="path3354" />
    <path
       style="fill:none;fill-opacity:1;stroke:#030000;stroke-width:0.99921262;stroke-miterlimit:4;stroke-dasharray:none;stroke-dashoffset:0;stroke-opacity:1"
       d="M 77.272721,114.25331 C 76.267569,116.12001 81.416881,113.0554 83.535246,113.14187 C 98.339916,113.74614 113.05813,112.33003 127.86452,111.98768 C 143.97053,111.61529 159.98006,110.94855 176.06246,109.95717 C 188.94915,109.16279 202.40644,109.16849 215.30476,109.6793 C 226.90132,110.13858 238.25196,113.92226 249.52423,116.34794 C 251.64379,116.80405 255.35256,116.88302 256.21423,116.62579"
       id="path3358" />
    <path
       style="fill:none;fill-opacity:1;stroke:#030000;stroke-width:0.99921262;stroke-miterlimit:4;stroke-dasharray:none;stroke-dashoffset:0;stroke-opacity:1"
       d="M 237.14879,101.89925 C 240.38139,102.59486 260.8406,116.77391 250.82803,122.78146 C 245.89139,125.74344 238.48657,124.40126 233.85723,126.22264"
       id="path3360" />
    <path
       style="fill:none;fill-opacity:1;stroke:#030000;stroke-width:0.99921262;stroke-miterlimit:4;stroke-dasharray:none;stroke-dashoffset:0;stroke-opacity:1"
       d="M 87.361157,104.67784 C 83.861036,106.77792 68.435454,114.7821 74.301762,120.40896 C 79.084965,124.99694 96.387546,119.46649 100.01445,123.59365"
       id="path3362" />
    <flowRoot
       xml:space="preserve"
       id="flowRoot3364"
       transform="translate(-1.5816617,-17.056297)"><flowRegion
         id="flowRegion3366"><rect
           id="rect3368"
           width="174.2179"
           height="27.550835"
           x="81.99633"
           y="100.89468" /></flowRegion><flowPara
         id="flowPara3370">random length/up to a limit</flowPara></flowRoot>    <flowRoot
       xml:space="preserve"
       id="flowRoot3372"
       transform="translate(53.648253,85.901327)"><flowRegion
         id="flowRegion3374"><rect
           id="rect3376"
           width="137.36945"
           height="81.476952"
           x="621.10785"
           y="162.15201" /></flowRegion><flowPara
         id="flowPara3378">A defined number of chunks with specific number of sequences each</flowPara></flowRoot>    <flowRoot
       xml:space="preserve"
       id="flowRoot3380"
       transform="matrix(1.3743005,0,0,1.5169703,34.765927,-3.3446187)"
       style="font-size:20px;font-style:normal;font-variant:normal;font-weight:normal;font-stretch:normal;text-align:start;line-height:125%;writing-mode:lr-tb;text-anchor:start;font-family:Courier"><flowRegion
         id="flowRegion3382"><rect
           id="rect3384"
           width="309.23248"
           height="42.154037"
           x="166.42287"
           y="10.205617"
           style="font-size:20px;font-style:normal;font-variant:normal;font-weight:normal;font-stretch:normal;text-align:start;line-height:125%;writing-mode:lr-tb;text-anchor:start;font-family:Courier" /></flowRegion><flowPara
         id="flowPara3386">Random path generation</flowPara></flowRoot>    <g
       id="g3458"
       transform="translate(-281.12967,-6.4762632)">
      <path
         id="path3392"
         d="M 588.14943,340.21718 C 588.82181,349.11815 599.6505,341.60327 592.89442,338.76376 C 591.36943,338.12283 589.73109,339.73271 588.14943,340.21718 z "
         style="opacity:1;fill:none;fill-opacity:1;stroke:#030000;stroke-width:0.99921262;stroke-miterlimit:4;stroke-dasharray:none;stroke-dashoffset:0;stroke-opacity:1" />
      <path
         id="path3394"
         d="M 589.02576,360.18032 C 587.43196,359.51046 595.909,369.32872 596.46384,362.80929 C 596.69289,360.11801 590.62587,356.84349 587.27311,363.83524"
         style="opacity:1;fill:none;fill-opacity:1;stroke:#030000;stroke-width:0.99921262;stroke-miterlimit:4;stroke-dasharray:none;stroke-dashoffset:0;stroke-opacity:1" />
      <path
         id="path3396"
         d="M 588.12806,384.09761 C 588.32828,381.74498 592.14365,387.01098 594.49745,387.19681 C 605.79285,388.08855 586.54512,364.31089 588.12806,384.09761 z "
         style="opacity:1;fill:none;fill-opacity:1;stroke:#030000;stroke-width:0.99921262;stroke-miterlimit:4;stroke-dasharray:none;stroke-dashoffset:0;stroke-opacity:1" />
    </g>
    <path
       style="opacity:1;fill:none;fill-opacity:1;stroke:#030000;stroke-width:0.99921262;stroke-miterlimit:4;stroke-dasharray:none;stroke-dashoffset:0;stroke-opacity:1"
       d="M 607.89883,125.38906 C 607.89883,125.30356 607.89883,125.30356 607.89883,125.38906 C 607.89883,128.006 613.11507,124.49374 615.72164,124.72647 C 621.04324,125.20161 624.31527,127.25574 627.00701,131.67296 C 629.23083,135.32231 629.15018,140.28723 630.21308,144.32625 C 631.06322,147.55676 632.01572,151.087 632.13672,154.41469 C 632.25286,157.60848 633.71888,161.71865 634.89395,164.69549 C 636.36419,168.42011 636.60756,173.87862 636.79621,177.84038 C 637.00704,182.26768 637.56703,186.75896 637.18094,191.19901 C 636.76022,196.03735 637.70975,202.31262 638.22826,207.18661 C 638.6683,211.32296 638.64798,215.49144 639.21145,219.60479 C 639.66875,222.94302 639.09006,226.72333 638.97634,230.07796 C 638.86236,233.44042 638.29677,237.05895 637.88628,240.40151 C 637.5096,243.46872 637.42548,247.12884 638.12139,250.12659 C 638.78709,252.99422 638.55094,256.08292 639.31832,258.97535 C 639.99478,261.52505 640.87611,263.69839 641.9473,266.09282 C 643.33209,269.18823 645.73581,270.76974 648.6373,272.37672 C 650.85998,273.60774 653.17788,274.36246 655.56242,275.17669 C 656.65187,275.5487 655.9935,275.21798 655.07082,275.9034 C 654.12423,276.60658 653.64371,277.54438 652.97619,278.42551 C 652.15509,279.50936 652.14462,280.37126 651.03117,281.35372 C 649.81003,282.43119 649.09619,283.72715 648.70142,285.372 C 648.00426,288.27684 647.38979,290.94767 647.20526,293.90014 C 647.04396,296.48097 647.36903,299.04819 646.90602,301.59471 C 646.4043,304.35422 646.37518,307.55101 646.58542,310.3366 C 646.77903,312.90196 646.75876,315.88575 646.82053,318.48002 C 646.87913,320.94144 647.24048,323.11804 646.79916,325.61887 C 646.22902,328.84962 645.79459,332.72131 645.79459,336.00654 C 645.79459,339.49264 644.76275,343.01612 644.38392,346.47971 C 643.98183,350.15595 643.74316,353.82814 643.3366,357.48722 C 642.97864,360.70888 643.70539,364.38966 643.91369,367.6184 C 644.11319,370.71061 643.48622,373.75676 643.48622,376.80914 C 643.48622,380.51908 642.62925,384.61458 642.16104,388.30825 C 641.70936,391.87147 642.3526,395.87219 642.52439,399.42262 C 642.67348,402.50369 642.21275,405.50792 642.31066,408.59199 C 642.43671,412.56261 642.16442,417.0928 641.5412,421.01017 C 640.87038,425.22674 640.76133,429.57392 640.10915,433.81308 C 639.64795,436.81091 639.30331,439.98889 639.12596,443.00381 C 638.96797,445.68955 638.39079,448.52639 637.84353,451.12586 C 637.3495,453.47251 635.68888,455.26734 633.97487,456.93954 C 632.4549,458.42243 631.1852,460.31279 629.82835,461.94101 C 628.54089,463.48596 626.29926,464.4026 624.46353,465.06158 C 622.2094,465.87076 619.6089,465.67863 617.26056,466.17302 C 613.76152,466.90966 617.52657,466.22396 616.25599,465.98066"
       id="path3402" />
    <path
       style="opacity:1;fill:none;fill-opacity:1;stroke:#030000;stroke-width:0.99921262;stroke-miterlimit:4;stroke-dasharray:none;stroke-dashoffset:0;stroke-opacity:1"
       d="M 293.87487,137.95686 C 293.52045,146.29489 293.6293,155.12945 293.72525,163.66954 C 293.85007,174.77824 294.43059,185.84974 294.43059,196.96993 C 294.43059,206.37646 295.81078,216.01254 295.47791,225.33297 C 295.17084,233.93095 295.11835,242.51934 294.83669,251.10978 C 294.70341,255.17475 293.93514,259.07972 294.02449,263.10049 C 294.03014,263.35476 293.95541,262.98366 294.45196,262.39515"
       id="path3404" />
    <path
       style="opacity:1;fill:none;fill-opacity:1;stroke:#030000;stroke-width:0.99921262;stroke-miterlimit:4;stroke-dasharray:none;stroke-dashoffset:0;stroke-opacity:1"
       d="M 31.832009,142.21024 C 31.897074,145.13816 36.874737,138.91943 39.761691,138.42708 C 40.418786,138.31502 64.46861,136.20755 55.685177,140.6927"
       id="path3406" />
    <path
       style="opacity:1;fill:none;fill-opacity:1;stroke:#030000;stroke-width:0.99921262;stroke-miterlimit:4;stroke-dasharray:none;stroke-dashoffset:0;stroke-opacity:1"
       d="M 30.100731,143.34305 C 32.959105,142.85558 28.826942,165.28578 28.604565,167.88018 C 27.831348,176.90105 30.729432,197.92399 33.392297,206.65227 C 37.776184,221.02168 38.211089,230.63617 37.410573,245.44573 C 37.044632,252.21564 38.548295,259.02616 38.18003,265.90046 C 38.066987,268.01059 38.688464,271.06385 39.526579,272.74008 C 39.587275,272.86147 60.442406,272.04539 64.191952,273.1248"
       id="path3408" />
    <path
       style="opacity:1;fill:none;fill-opacity:1;stroke:#030000;stroke-width:0.99921262;stroke-miterlimit:4;stroke-dasharray:none;stroke-dashoffset:0;stroke-opacity:1"
       d="M 575.15416,278.57513 C 575.15416,278.57513 575.15416,278.57513 575.15416,278.57513 C 582.4405,277.74647 589.69973,279.21575 596.97681,279.64382 C 599.743,279.80653 602.4012,279.57648 605.14161,279.4087 C 606.79534,279.30745 604.8686,282.71203 604.79963,284.36743 C 604.49917,291.57849 603.55994,298.22189 604.50039,305.46337 C 604.9928,309.25489 605.17136,313.86595 605.99656,317.49683 C 606.26427,318.67475 593.70979,320.19973 592.97991,320.27542 C 588.19327,320.77181 583.06362,321.16529 578.21061,321.06625"
       id="path3426" />
    <path
       style="opacity:1;fill:none;fill-opacity:1;stroke:#030000;stroke-width:0.99921262;stroke-miterlimit:4;stroke-dasharray:none;stroke-dashoffset:0;stroke-opacity:1"
       d="M 582.07927,401.36764 C 574.61755,402.14145 589.13254,401.45177 592.14633,401.79512 C 596.91515,402.3384 604.36484,402.60703 608.64691,405.02256 C 614.20815,408.15967 610.65028,417.79351 609.58736,422.22848 C 607.98217,428.926 606.85839,441.02682 605.3126,445.15829 C 604.76447,446.62328 602.21086,444.74419 600.65311,444.60258 C 595.17946,444.10497 590.56723,443.54273 585.26397,444.70944 C 584.26279,444.9297 582.28765,445.17309 581.84416,445.28654 C 581.45462,445.38619 582.06854,444.23724 581.69454,444.0896 C 579.58081,443.25524 581.85558,444.21563 581.20294,443.70488"
       id="path3428" />
    <path
       style="opacity:1;fill:none;fill-opacity:1;stroke:#030000;stroke-width:0.99921262;stroke-miterlimit:4;stroke-dasharray:none;stroke-dashoffset:0;stroke-opacity:1"
       d="M 582.48537,402.00458 C 582.48537,402.00458 582.48537,402.00458 582.48537,402.00458 C 580.96071,401.99746 579.43604,401.99033 577.91138,401.98321 C 573.27973,401.96156 569.0109,401.60933 564.40313,402.41068 C 560.9168,403.017 558.6012,403.23303 555.34064,402.81678 C 553.86303,402.62815 551.81623,402.85879 550.7239,402.94503 C 549.58633,403.03484 548.67644,402.63848 547.58195,402.5603 C 546.03916,402.4501 544.54767,402.16706 543.00795,402.09008 C 541.60631,402.01999 540.19686,402.93584 539.20342,403.30838 C 538.17959,403.69232 537.02797,403.51789 535.97597,403.41525 C 532.524,403.07847 528.80951,404.1291 525.48143,404.86867 C 522.79004,405.46676 520.1193,405.23912 517.46626,404.69768 C 514.32392,404.05639 511.36649,403.01708 508.14728,402.66717 C 501.24944,401.9174 494.35882,401.26869 487.43606,400.72215 C 476.84514,399.88603 466.44091,399.74741 455.8242,399.65346 C 441.24643,399.52445 426.7226,398.42567 412.17889,397.55883 C 394.44482,396.50183 376.43814,396.85328 358.68025,397.06723 C 340.2916,397.28878 321.92352,397.21878 303.53583,397.10998 C 285.41625,397.00276 267.30164,396.99296 249.18224,396.78937 C 232.32006,396.59991 215.52337,395.79778 198.67594,395.35733 C 182.66249,394.93867 166.64277,394.92774 150.62762,394.5665 C 136.48889,394.24758 122.35298,394.94064 108.22199,395.27183 C 95.277943,395.57521 82.164147,394.78932 69.214796,394.481 C 59.217218,394.24296 49.232041,393.67963 39.227346,393.56193 C 36.047674,393.52452 38.250684,395.38367 38.97086,397.21685 C 40.893568,402.11101 42.192339,407.12614 43.950957,412.05027 C 45.221151,415.60681 46.229898,419.34308 47.157028,422.99366 C 47.694082,425.10831 47.05416,427.10845 46.32345,428.9997 C 45.986309,429.8723 46.767905,430.0883 47.605878,430.36762 C 53.651897,432.38296 60.569768,432.70488 66.842303,433.38133 C 79.034646,434.69619 91.315795,435.3314 103.54113,436.28816 C 118.12345,437.42939 133.18175,437.03094 147.80628,436.92938 C 164.69535,436.81209 181.57128,436.52588 198.4622,436.73701 C 214.42115,436.9365 230.4292,437.41933 246.38227,437.93395 C 265.0566,438.53635 283.72865,438.35317 302.40302,439.23775 C 322.54897,440.19203 342.68798,441.18734 362.84814,441.82398 C 382.62068,442.44838 402.38405,442.55228 422.16045,442.91404 C 436.36822,443.17394 450.62569,443.37457 464.82257,442.65756 C 472.69617,442.2599 480.8388,442.55414 488.71849,442.93542 C 494.9564,443.23725 501.22042,444.0407 507.42057,444.75219 C 514.08772,445.51727 520.68627,445.11717 527.36233,444.90181 C 533.93217,444.68988 540.57329,445.83362 547.06898,446.63309 C 551.49132,447.17738 556.15161,447.64734 560.61997,447.42392 C 561.90952,447.35944 562.83232,447.12488 563.95428,446.50484 C 565.47208,445.66606 568.15251,446.01308 569.74658,446.03462 C 573.05279,446.0793 576.26682,446.81341 579.59991,446.76133 C 581.4815,446.73193 583.59855,446.75317 585.37084,446.48347 C 586.61994,446.29339 587.11307,444.56347 588.2563,444.02548 C 590.05344,443.17977 592.68673,443.37478 594.60432,443.57663 C 596.06638,443.73053 594.43607,443.68179 594.77531,443.46976"
       id="path3454" />
    <path
       style="opacity:1;fill:none;fill-opacity:1;stroke:#030000;stroke-width:0.99921262;stroke-miterlimit:4;stroke-dasharray:none;stroke-dashoffset:0;stroke-opacity:1"
       d="M 577.67627,280.10976 C 573.55258,277.75355 566.03954,278.69909 560.29936,278.69909 C 550.56882,278.69909 540.83515,278.27621 531.12412,279.1052 C 516.29105,280.37143 501.56963,278.73391 486.73072,278.07925 C 462.22857,276.99828 437.70658,276.68195 413.20483,275.62127 C 388.03407,274.53162 362.87981,274.35532 337.69117,274.25334 C 312.31644,274.15061 286.93347,275.3254 261.55768,275.55714 C 239.39385,275.75955 217.26861,276.56811 195.12789,277.54491 C 175.47684,278.41187 155.81743,278.96486 136.15756,279.57542 C 119.05951,280.10641 102.10584,279.26362 85.031412,279.0197 C 73.543878,278.85559 62.048282,279.28941 50.576837,279.72504 C 47.270462,279.85059 40.61351,279.34067 37.966292,281.90516 C 34.855763,284.91849 38.246238,293.97042 38.928113,297.3798 C 40.139723,303.43785 40.829976,308.0901 39.612075,314.17961 C 38.429681,320.09158 56.755438,316.17313 59.083612,316.03913 C 81.990464,314.72075 104.90971,313.46645 127.84315,312.70482 C 157.84805,311.70835 187.82661,310.78567 217.84824,310.3537 C 245.22001,309.95986 272.55893,310.49815 299.92366,310.93079 C 322.8704,311.29359 345.82856,312.7166 368.74731,313.83763 C 386.53786,314.70782 404.32328,315.62317 422.11771,316.40249 C 435.69863,316.99727 449.29101,317.73792 462.85618,318.62536 C 473.1665,319.29987 483.47309,320.36129 493.7627,321.31846 C 503.32098,322.2076 512.88102,323.11488 522.4891,322.81463 C 528.6067,322.62345 535.01111,321.95488 540.82783,319.97191 C 544.14804,318.84002 547.89406,318.03965 551.38649,317.66354 C 554.34329,317.34512 557.43223,317.3583 560.40623,317.40706 C 563.15191,317.45207 566.13836,318.00435 568.84888,318.47575 C 571.07341,318.86262 573.49132,320.08612 575.70988,320.72 C 575.73458,320.72705 575.75262,320.74849 575.774,320.76274 C 576.65972,321.35323 578.84543,321.03733 579.8564,321.10472 C 581.61616,321.22204 581.52187,322.27877 580.36937,323.07111"
       id="path3456" />
  </g>
</svg>
